<?xml version="1.0" encoding="UTF-8"?><svg id="Layer_2" xmlns="http://www.w3.org/2000/svg" xmlns:xlink="http://www.w3.org/1999/xlink" viewBox="0 0 344.03 99.95"><defs><style>.cls-1{fill:url(#linear-gradient);fill-rule:evenodd;}</style><linearGradient id="linear-gradient" x1="0" y1="49.98" x2="344.03" y2="49.98" gradientUnits="userSpaceOnUse"><stop offset="0" stop-color="#300101"/><stop offset=".5" stop-color="#bd0405"/><stop offset="1" stop-color="#3f0302"/></linearGradient></defs><g id="Layer_2-2"><g id="Layer_1-2"><path class="cls-1" d="M339.76,74.13c-.86.11-1.42.42-2.31.5-.21-1.02,2.11-1.4.58-2.01,1.07-.68.54-2.05.77-3-.23-.06-.44-.13-.58-.25.3-.36-.15-.63.38-1.13-.47-.02-.94-.02-1.16.12.28-.25-.2-.44.38-.63-.6-.41-.32-.89-1.16-1.25-.67.37-.66.38,0,.5-1.01.46-.34.41.2.75-.84.11-.47.43-.2.75-1.32.51-1.74-.19-2.71-.5.32-.41.5-.41-.2-.63,1.1-.45-.58-1.59.2-2.25-1.32-4.64,4.86-13.01,4.23-19.65.02.32,1.17-.15,1.6-.04-.51-.09-1.03-.28-1.54-.32.13-.98.26-1.99.31-2.94,1.38.44,4.28.36,5.24.33-.47-.25.44-.13-.27-.37.04.32-.62-.07-.81-.21l1.32-.08c-4.73-.37-2.85-2.67-2.93-7.38-.91,1.66-.35,4.8-.34,6.77-.13,0-.25-.03-.38-.04.13.15-.67.07-1.01.1.61-.18-.16-.11-.36-.19-.04.11-.21.14-.46.14,0-.46-.04-.9-.09-1.31-.65.14-.23-2.61-.12-3,.29,1.02.23-1.86.73-.55.1-1.39.51-2.45.13-3.12-.39,2.22-1.15.82-1.94,2.08-.27-.99.23-1.69-.24-2.12,1.2-1.59,3.73-6.23,3.17-8.99-.16,1.35-.64,1.8-1.16,2.14.34-1.59.04-2.55.17-4.38,0,1.67.16-.61.24.69-.12-1.42.78-2.33.97-3.76-.09.08-.18.13-.27.18.45-3.3.56-5.57.9-8.96-.85-.04-1.84-.07-3.01-.08.81-.11,1.94-.15,3.32-.16-.2,6.53.94,5.86.82-.62-2.52-.09-5.11.05-7.64.06v-.63.62c-.75-.05-1.76-.06-2.9-.05,0-.27,0-.57.01-.83-.24,0-.46,0-.61-.03-.94.36-5.38-.19-3.87-.33-.09,0-.2.02-.3.02v-.46c-.35,0-.76.04-1.29.08.09.05.46.11.98.14-2.18.97-10.64-.07-9.83.65-3.03-.49-10.75.93-13.15-.34-2.05.3-2.13.62-4.04.46h.03c-.45,0-.59-.61-1.27-.04-3-.75-7.39-.09-11.18-.67.75.48-4.32.04-5.39.05.56-.22.51-.14,1.9-.1-.02-.1-.14-.12-.17-.16h.22l-.23-.03s.05-.04.15-.09c-1.45-.07-1.48.11-2.2.12.21-.28-3.69-.1-4.8-.25.07.1-.24.15-.94.14-.21-.4-2.59,0-3.55-.11.01,0,.03-.02.05-.04-3.48.15-6.12-.27-9.95.07l.54.06c-2.55-.23-10.05.55-11.24-.2-.91-.22-5.16.45-3.41-.82-.45-.27-1.64.51-2.44-.13,1.02.15,2.24.04,3.21,0-.05,0-.21.1-.31.1,4.26-.02,7.97-.33,11.76.02,2.15-.09,5.94-.21,7.92-.2-.37,0-.35-.07-.34-.14,2.39,0,3.16,0,4.43-.11,0,.04-.26.05-.31.1,2.43.07,4.6-.26,6.52.1h2.05c-1.49.19,1.61.36,3.15.42l-2.63-.36c.79-.05,1.07-.27.79-.34,1.36.04,1.5,0,2.82.13-1.1-.13,1.24-.16,1.89-.19.01.09.87.05.66.19.1.11-.91.05-.94.14,2.1-.02,2.06-.16,2.19-.38-.45-.04-1.09-.06-1.7-.08,6.23.18,13.25,0,19.24-.06-5,.25-9.64.5-14.6.98,2.41.06,4.64-.14,6.05.17-.84.12-1.68-.03-2.86,0,.24.12-.62.1-.61.19,1.03-.04,5.52-.09,4.15.22,2.29.03,2.85-.03.63-.13,2.22-.12,2.44-.34,4.09-.48-2.2-.08-3.07.21-4.12.15,8.01-.73,19.6.2,27.88-.1-.35-.1-1.94-.15-1.85-.27-2.22.12-4.25-.14-6.86-.26.37,0,.79-.02,1.24-.04-.75-.32-4.31-1.13-7.29-.78.06-.03.13-.06.21-.1-3.06.24-6.99.26-7.46-.43,2.13.02,5.1-.05,7.36.06,1.46-.08,3.13,0,4.54-.03-1.77-.05-2.98-.04-4.48-.06.36-.39,2.4-.04,3.1,0-2.13-.53-3.31-.5-5.66-.54.1-.55-1.99-.3-3.39-.17.01.67-7.31.04-10.21.22.15,0,.29-.03.39-.04-.27-.02-.65-.03-1.09-.02,2.27-.26-2.65-.18-2.89-.03.53,0,.89,0,1.06.07-4.43-.18-7.44.29-12.58.21.1-.02.14-.04.12-.06,2.67-.05.1.03-.82-.19.56-.03,1.88.05,1.9-.05-1.02-.06-3.08.03-2.57-.27-.91-.02-.37.07-.37.13-.33-.53,2.97-.24,3.86-.13.28-.19-4.73-.53-4.56-.2-1.84,0-2.49-.28-4.7-.2.36,0,.5.05.65.09-.57-.03-1.31.14-1.59,0,.37,0,.9,0,.95-.05-9.43-.17-11.72-.05-18.14-.19-5.48.12-12.63.11-17.83,0,1.17,0,1.48.05,1.59.11-1.58-.1-5.99.27-6.3.02-1.3.09-2.97,0-4.14-.08.86-.19,2.5-.04,2.82-.34-3,.19-5.11.41-7.56.57,0-.11-.4-.14-.87-.18.06-.09.12-.22.14-.41-8.35,1.04-17.58.27-26.29.44v-.03c-.82,0-1.64-.08-2.52-.09v-.23c-.86.2,1.17-.59.14-.51.06-.16.12-.32.33-.48-.51.41-.95.43-1.52.42.02,0,.04,0,.05.02-.29-.03-.58-.08-.86-.12.59-.08-.2-.1-.45-.07.54-.19,1.69-.12,2.24,0-2.17-.57-5.27-.16-6.5-.57.8.64-2.49-.62-1.95.29-.22.08.37.14.23.48-.15-.16-.43-.15-.73-.12.39-.59.07-1.1-.38-.42,0-.53-.65-.27-.74-.68-.52.48-.68.1-.61-.27-.46.39-.64.26-.96.72-.21-.27,0-.18,0-.56-.75.18-.89-.34-1.33.44-.22-.28-.5-.09-.13-.42-1.34-.26-1.77,1.33-2.42,1.02-.07,1.03-.62.64-1.09.3-.1.2.05.35.1.45-.43-.02-.66-.22-1.18,0-.1-.44.18-.43.23-.7-.27.24-.66-.02-.73.15.17.07.3.21.37.42-.4.11-.85.4-.73-.27-1.2.53-2.71.78-3.4.34,0,.12.02.22.07.3-.21,0-.43.09-.64.05l.18-.26c-1.18.2-2.42-.09-3.62-.13.05-.63.45-.22.96-.47-.15-.43.18-.34.23-.56-.57-.1-.35.16-.49.28-.51-.21-.4-.32,0-.57-.5.12-.75-.04-.86-.4-1.52.93-17.22.4-10.46,1.06-.24.57-.6.4-1.17.39l.59.11c-1.44.11-2.55.12-4.14-.04.22-.22-1.65-.62.65-.59l-1-.04c.41,0,.85-.03.87-.06-1.1-.08-2.47.04-3.47-.03.36.02.67.04.93.05v.02c.21,0,.42.03.59.05-.08,0-.17.03-.26.04.65-.1,1.27.3.95.66-1.94.06-3.72-.13-5.65-.13,1.3-.03.74.15,1.12.19-1.69.16-1.15-.03-3.32.08.06-.09-.37-.11-.34-.19-.24,0-.49,0-.73.02,1.34-.53,10.05-.36,3.93-.53.28-.05.54-.22.37-.44,1.65.38,4.22.17,5.71-.8-.6.21-1.69-.27-2.19.32.27-.62-.53-.09-.6.15v-.42c-8.71.43-14.23.81-22.78-.57.27.03.79.09.8.15l-5.9-.14c1.31.15,3.39.33,4.2.55h-1.02c2.6.39,3.45.13,5.97.51,1.2.25-1.86.11-1.45.28-.16,0-.29-.04-.24-.28-.56.31-1.22-.34-1.46.17.75.13,1.23-.27,1.46.39-1.43-.36-2.76.19-4.01-.2-.02.67-.84-.21-.97.38h-2.26c.03-.1.05-.19-.06-.33-3,.94-7.42.09-10.51.27.01-.31-.24-.21-.44-.22,0,.09,0,.15.01.19-.15,0-.29-.02-.44-.02,0-.05.02-.12.05-.27h.23-.23v-.05c-.83.49-2.07.16-2.2-.65,0,.07.02.14.06.2.5-.79,1.32.03,1.89-.52.02.16-.01.4.13.42-.12-.8.62-.21.85-.16-.22-.49-.93-.42-1.11-.95-.1.47-.22.07-.6.15.08-.46-.51-.67-.97-.27.79.55-1.4.55-1.82.04.03.64-.58.41-.96.29v.15c-.19,0-.43.11-.49-.14.21.03.72-.27.36-.42,0,.4-.83-.11-.85.29.27-.03.38.11.37.42-2.01.26-4.42,0-6.69,0,.52.06-.49.12-.74.16,1.01.06,1.06.19.2.19.21.07-.81.15-1.63.22,1.32-.23,7.99.55,4.02.36-.03.09-.08.17-.11.24-1.68-.57-1.65,0,0,0-.15.22-.35.3-.6.19.84.15,1.99.19,2.8.23-.06.2-.17.35-.23.56.82-.31,1.85-.22,2.9-.13-.91.57-2.79.09-3.86.25.08-.02.16-.03.29-.04l-3.33-.08.21-.22c-.93-.33-4.99.11-4.33-.4l-.91-.13.06.25c-2.85.15-6.92-.45-9.74-.21.03.19-2.85-.21-.21.22-3.07,0-4.42-.39-7.49-.38.46-.36,3.25.03,3.01-.19l1,.03c-1.95-.33,2.42-.15,1.24-.38-2.77.17.96-.31-2.81-.02,3.35-.46,6.93.47,10.35-.57l-2.9-.46c.29-.05,8.44.51,5.5-.26.02-.04.03-.08.03-.14-.09.04-.23.02-.37,0,.01,0,.05-.02.1-.03-1.63.13-4.74.34-6.35.11,1.35.34-3.5.38-1.96.44-6.73.71-24.03,2.56-30.66,2.53,1.47-.07,3.36-.07,4.13.08-1.18.17-4.9.23-4.46-.08-4.12.14-6.4-.31-10.37-.09-7.41-.22-18.32.23-25.69.04-3.78.56-6.01-.02-10.32.19-.03.26.12.92.14.1.56,0,1.28,0,1.64.11-.46.03-.93.05-1.41.07.83,15.04.56,24.74.74,37.13.22.12-.02,1.19.19,1.69-.22.04-.17.46-.06.73-.57,1.52.01,3.37-.08,4.9-.08-.04-.16-.1-.21-.19-.43.49.35.67.23,1.12-.16-.06-.32-.21-.5-.19-.08-.58-.02.03-.27.21.09-.36.2-1.86.16-1.94-.02.31-.08.5-.19.49.02.27.03.45.03.6-.02-.03-.05-.06-.08-.09-.12.16-.22.15-.34.21.02-.22.18-1.15.31-2.17-.36.19.02-1.21-.19-1.69-.15,2.25-.24-.13-.07-1.21.06,0,.07-.2.12-.25.15,2.55.13-3.83.22-3.9-.02.29-.06.56-.12.73.03-2.16-.24-1.62.29-2.93-.22.25-.06-1.09-.24-.95-.06,2.81-.1-.96-.19-1.93.12.04.14-.28.24-.26-.08.73-.08,1.77.13,1.94-.05-1.93-.09-3.21-.32-4.66.09-1.18.23-.49.37-.03-.06-2.32-.07-3.12.12-4.79.01.57.14.47.19.8-.21-3.44-.07-21.29-.51-16.92-.31-.53-.33-6.77.06-3.19-.22-5.12-.64,1.52-.66,2.48-.26-1.88.09-4.41-.16-6.37.46-.09,2.61-.07,1.53.07,5.85-.15,10.68-.05,16.38-.3-1.24.18,5.42.11,3.76-.05,6.27.05,14.84.21,21.56-.27-1.67.07-4.08-.11-5.86.11,1.22-.2-2.42-.03-2.72.05-11.21-.38-23.59.07-35.25-.04.12,13.18-.14,24.05.38,36.07-.35-.53-.02,1.48-.3,1.23.14,1.11-.15,2.42.07,2.91.06-1.5-.12-2.46.17-2.92-.16,2.87.09,5.45-.08,8.01.26,1.26.32,3.27.31,4.83.15-1.23.08.45.06.96.44-.83-.27-4.12.1-5.1.27.62-.06,2.63.31,1.43-.03-.31.08-.98.59-.84-.47,1.67,0,1.16.13.06-.01,0-.02-.02-.03-.05.15.02.29.03.44.04-.26,1.64.18,4.39-.27,6.07.17.08.24.77.25,1.46-.07-.03-.13-.06-.19-.1,0,.09-.06.17-.14.24-.14-1.15-.38-1.9-.19-3.53-.1.03-.19-.04-.24-.23.12,1.38-.07,2.47.07,3.63.46-.11-.24.69-.72.27.9-.66-.57-1.52-.02-2.65-.22,1.19-.29-.66-.49.03.13.03.17.35.22.66-.41.04-1.01.17-1.1-.27.22-.06.51.27.61,0-.39,0-.37-.34-.74-.36-.98,1.38-3.15-.6-4.62-.05,1.06.27,3.42,1.38,3.69,2.37.85-.39.99-.11,1.94-.03-.11.65.41.47.15,1.3-1.18.46-2.64-.48-4.26-.32,2.67,1.28,8.52,5.46,2.31,6.29-2.06,2.97,2.43,3.48-2.96,4.13.47.07.67.69.27.93,2.4,2.62,3.14-1.91,6.57.49v2.09c-.28-.14-.52-.31-.95-.33-.39.4,0,1.08.62.83-.86-.14.02-.43.32-.21,0,1.75-.03,3.6-.09,5.65.24,5.86,0,13.06.19,18.41,2.92.2,13.79-.25,11.03.04,4.95-.04,7.53-.16,11.23.08-.12-.22,2.75-.16,3.15-.33-2.75,0-6.25-.02-7.46-.27,2.21-.09,3.04.17,4,.04-5.15-.31-8.15.07-13.59.03.03-.06.32-.11.62-.14-2.7-.11-5.6.18-8.31.04-.02-8.7.02-17.18-.19-25.84.61.14,1.46-.16,1.46.57.02-.13.03-.28.03-.45,1.31-.18.54,2.37.95,2.82.17-1.69-.57-1.68.21-2.99h.02c-.02,1.98,0,2.95.08,4.34-.5-1.4-.03.49-.02.98-1.5-.18-1.09-1.33-1.08-2.54-.2.11-.1,2.63-.3.8v1.24c-.13-.04-.24-.05-.37-.07.84.67.45.65.5,2.12.13-.41.15-.95.15-1.57.31.18.68.32,1.06.41-.11,1.54-.02,13.43.2,8.12.29,3.11.29,6.47.46,9.62.9-.03,1.79-.05,2.69-.1-.17.06-.83.08-1.05.14,4.42-.15,4.77-.17,7.71-.14v1.37c-1.15-.24-1.45.05-2.33.02.08-.08-.28-.11-.84-.14.17.26,2.2.17,3.17.28v.3c2.64,0,5.35-.02,8.15-.06-.02.36.42.28.61.1-.21.04-.25-.04-.32-.11.86,0,1.72-.03,2.6-.04-1.37-.22-6,.08-7.67-.12,2.87.07,6.05-.22,9.21-.28-3.23-.23-9.01.25-11.89-.02.06-.42.13-.82.17-1.29h.2c-.02.37-.06.74-.08,1.07.38.03.71.04.95.06l-.9-.1.15-1.03h.08c.03.3.07.57.08.8,2.64-.08,1.4.42,4.59-.02-.52.49,5.29-.1,4.62.42.92.02,2.19-.19,3.29,0-.45.02-.87.04-1.24.09.37,0,.95,0,.95.04-4.08.09-4.34.34.57.13v.03c1.41-.11,3.09-.07,4.51-.1-1.6.69.7.93.28,0,2.98.09,3.69.1,6.05.03-.05.02-.08.03-.15.04.08.02.15.04.22.05.26.27,1.04-.3.98.12,1.13-.32,2.92.27,4.37-.05.67.43,3.41.24,3.89.13.06.34-.54.49-.84.29.09.65.79.14,1.1.08-.02,0,.02.19,0,.19,1.05-.82,1.62-.38,2.9-.32-.27-.43.89-.04,1.2-.29-1.31-.04,1.46-.46,1.46.17-.41-.03-.45.21-.73.28.67-.04.36.09.5.46.53-.11.6.15.97.18,0-.04-.02-.08-.05-.11.02,0,.05,0,.08.02.03-.09.39-.15.45.09-2.9.65-5.07-.35-7.89.28,0-.18-.41-.06-.37-.27-1.5.29-3.15-.66-4.37.05.35,0,.83-.09.86.18-.38-.02-2.08.33-1.71-.35-.24.14-.76.01-.98.19-1.46.06-1.32.16-.8.25-2.11-.67-4.55.1-6.12-.62-.66.16-1.28.36-2.79.32-1.76-.77-5.78-.31-7.66-.57,2.65.41,4.81.34,7.55.47.32.56.18.51-.35.74.47.19,1.76-.4,2.56.16.73-.36,2.51-.86,3.63-.6-1.42.39-.24-.15,0,.47-1.92.12.67-.07.25.65.38-.63,1-.15.25.37.54.24.58-.14.6-.28-.15.81.78.7,1.35.72-.14-.02-.2-.1-.24-.19.22.05.5-.28.6,0-1.02.25,1.73.17,1.82.52-4.25.22-8.05-.2-12.44,0,4.3.04,5.15.37,8.63.09,0,.09.25.1.64.04.84.65,3.27-.4,4.47.13-.02-.06.14-.11.3-.14-.57,0-.74-.04-.65-.14-.36,0-.65,0-.89.02.16-1.13,1.17.66,1.3-.46,1.35-.07,1.11.21.5.46,1.51-.56,2.4.31,2.91-.03.52.08.61.06,1.34.08,1.22-.75,4.12-.13,5.71-.25-.12-.64,1.38.22,1.7-.4,0,.12-.06.2-.12.28.5-.18,1.13.03,1.59.17-.32.37-.96.06-1.08.66,1.27-.41,1.97-.84,2.9-1.16,2.55,1.37,8-.82,10.34.34.68-.34,1.09.22,1.57-.2-.63-.14.09-.3.6-.29.15.42,1.5-.2,2.2.34.03-.19-.17-.19-.25-.27.47-.05,1.35-.12,1.47.35-.31.11-.43-.4-.61-.09,2.12.2,4.21-.44,6.19-.07,1.87-.21,1.61.13,2.56.44-.1-.48.62-.4.84-.19-.38.14-.93.17-1.09.48.75-.16,2.15-.57,2.07.26,0-.1.21-.11.24,0-.49.24-.29.43-.72.66,1.55-.82,2.85.48,4.24-.7.03.18-.13.2-.12.37.38,0,.34-.3.84-.19-.02.18.14.2.13.37.31-.04.67-.05.84-.19-.53.04-.78-.14-.86-.45.81.13,1.2-.3,1.94.16-.49-.09-.36.28-.84.19.12.52.4.76.61.18-.21.34,2.99,1.07,1.94-.03.15.11.43.1.73.08-.43.51.04.65.38.27,0,.35.65.19.74.46.52-.32.68-.06.61.18.46-.27.64-.18.96-.48.21.19,0,.11,0,.37.5.14,1.88-.52,1.46-.03,1.34.17,1.77-.89,2.42-.68.57-.95,1.06-.08,2.19-.49.1.29-.19.29-.23.47.27-.16.66,0,.73-.1-.17-.05-.3-.14-.37-.27.29,0,.36-.17.73-.11v.28c1.32-.31,2.79-.63,3.39-.23,0-.12-.06-.2-.13-.27.3-.21,1.74.48.97,0,.58.04.75.4,1.1.18-.29-.03-.29-.25,0-.28-.33.52.58.09.86,0-.31.26.57.16.73.08-.09-.02-.22,0-.24-.08h1.05c-1.24.53,1.63-.38,1.86.22-.98-.34-1.58.85-2.19.12-.01.52-.43.21-.96.38.15.29-.18.23-.23.37.81-.15,1.06-.12.5.18.5-.08.75.04.86.27,1.82.25,7.05-1.46,7.41-.74,2-.19,3.92.1,5.95-.64-.56.13-1.29.15-1.59-.17.45-.34,1.88-.47,1.7.17.66-.34,1.24.37,1.46-.2.15.58,1.53.55,2.31.34,1.52.19,4,.05,5.58-.34-.21.71,2.31-1.04,1.7.16,3.39-2.39,9.48-1.71,13.92-1.94.06-.34.6.03.85-.29.02.34.23.27.37.09.07.53.67.12.86.45.68-.28,2.13-.73,2.92-.04.32-.43,1.96-.32,2.32.06.08-.53,1.46-.44,1.46-.2.32-.32.74,0,1.11.09-.03-.12,2.8-.04,1.83.21.09,0,.19-.02.28-.03-.03.04-.06.1-.06.16.69-.3.89.15,1.57-.11-.04-.04-.09-.07-.18-.1,2.67,0,5.76.49,3.95-.11,2.59-.81-4.03-.27-4.66-.36.28.1-1.24.16-1.23.22-4.06-.22,3.53-.65,5.4-.34.42-.21,3.13-.51,3.04.24,1.8-1.18,3.68.05,5.69-.72.05.21-.35.11-.36.28,1.17-.06,1.77-.31,2.67.15-.06-.44.64-.32.72-.66-.59-.02-1.32-.03-1.71-.4,2.14.04,4.5.19,5.02.41-.69.04-1.89.09-2.64.06.08-.04.15-.11.19-.18-.34-.03-.55.18-.8.11.04.02.08.03.12.04,0,0-.03.02-.05.04,1.25.32,3.67.08,4.3.52-.16.04-.29.1-.37.19.69-.04.52.49,1.16.5.05-.36-.44-.39-.38-.75h-.02c.44-.11-.05-.26-.71-.34,2.75-.04,2.92.49,5.32.39-.07.08-1.2.08-1.23.19,2.33.2,1.35-.08,1.76-.29-.23.02-.4-.02-.53-.04,3.02-.32,2.88-.01,6.5.14.51-.06-1.54-.05-2.08-.18l1.26-.1c-1.3-.09-2.3-.03-3.36-.14,2.04-.34,3.51-.29,5.36-.04l-1.52.12c1.89.16,4.85.86,7.96.25-.34-.21-2.14.16-1.85-.34,2.4.24,4.18.09,6.24.6l-.29-.15c2.27.15,1.66-.36,3.06.04-.03-.1-.08-.19-.15-.26.32,0,.77,0,1.42.04l-1.24.22c3.12-.04,5.3.78,8.52.44-.79-.09-1.85-.27-1.89-.46,1.81.09,1.6.31,3.85.14-2.36.25-4.36-.64-1.31-.21-1.52-.45-4.11-.55-5.61-.58,2.2-.04,3.05-.88,4.27-.69.43-.7,5.18-.71,4.07-.02.56-.16,1.38,0,1.52-.1-.37-.05-.62-.14-.78-.27.6,0,.74-.17,1.52-.11,0,.1,0,.19,0,.28,2.81-.29,5.5-.63,7.09-.23,0-.13-.13-.2-.27-.27.63-.13,1.33.12,1.98.31v-.2c.05.02,1.47.73.97-.03,1.85.33,4.8.19,5.68-.14-.14.02-.24.04-.26.1.61.03.86.22,1.53.27v-.19c.18,0,.37,0,.56.02-.08.04-.14.1-.17.17.05,0,.08.03.12.04-.64.13-1.2.2-1.77-.13-.29.65-1.19.19-2.03.21.02.07.05.12.06.17h-.06c.3.29-.39.23-.49.37.22,0,.38.02.51.02,0,.02,0,.04-.02.06.61-.06.44.39,1.16.25-.04-.07-.06-.12-.08-.18,1.7.28,2.05.2,3.83.22-.66.08-1.77.06-1.75.23l-1.3-.15c.91.69,4.25-.3,5.99.57l-1.79-.03c2.57.11,5.93.32,7.88-.11-2.33-.21-4.84.04-7.44-.19,3.49-.26,3.98-.13-.2-.32.92-.22,8.21-.53,5.69-.26.8.07,3.87-.09.88-.16,2.65-.35,4.76.29,7.41-.24v.37c1.38-.29,2.23-.12,3.67-.25v.5c3.23-.2,6.57.03,9.27.38.13-1.23,3.49.14,5.02-.12-.03-.23.08-.74.3-.34h-.24c.17,0,.29-.03.34.16-.15.03-.21.05,0,.05v.12c2.03.09,3.04-.22,4.33-.07-.04.06-.06.12-.07.19.46.12.53,0,.55-.17,3.96.19,7.47,0,11.43.14v-.04c.55,0,1.1.03,1.62.05,0,.03-.07.03-.28,0,2.5.32,5.13-.09,7.56,0v-.05c.87.02,1.64,0,2.56,0-.01.02-.02.04-.05.05,2.27-.26,5.37.27,7.68-.11l-2.14.04c1.13-.14-.82-.14-2.37-.2,5.99-.04,12.08-.09,18.05-.14.24-.91-.58-2.86.42-3.11.15-.81,1.11-1.31,1.55-2.13-.39-.04-.18-.47-.58-.5-1.94,1.16-.85-1.07,1.17-1.88,1.15.18.5,2.11,1.55.5.08.28,1.03,0,1.16.25,0-.38.67-.32,1.16-.38-.53-.61.96-.5.97-1.13-.74.06-1.24-.04-1.55-.25-.31,1.42-2.59.63-1.74,1.25-1.64-.09-1.07-.85-1.93-1.38.67.21,1.97,0,1.55-.5,2.14.15,3.72.09,5.4-1.25-.16-.51-.02-.43,0-1-3.86-1.12-2.88-.39-1.35-3.77-1.36.04-2.59.25-1.74-1.63.2.1.72.6.97.25-.15-.03-.38,0-.38-.12,2.47.61,3.36-1.69,1.92-3.76.9-.07,0-1.06.9-.72l.13.1ZM6.73,38.86c-.19,2.06-.2.4,0,3.15-.05-.58-.87-2.57,0-3.15ZM6.64,29.4c-.11-.79-.24-3.76.05-4.86-.02,1.61.07,3.88-.05,4.86ZM6.68,23.74c-.09-.51-.12-1.41-.13-2.45.23-.3.22,1.85.13,2.45ZM7.05,26.98c-.16-.45-.13-2.17-.13-3.62.22.64.17,2.09.13,3.62ZM7.16,22.19c-.16.1-.2-.58-.19-1.63.16-.09.2.59.19,1.63ZM6.83,10.46c.1.65.7,5.24-.12,5.21.01-1.88.06-2.29.1-5.21h.02ZM6.9,16.53c-.19,1.31-.24,2.59-.23,4.38-.27-.15-.17-4.73.23-4.37h0ZM6.42,17.19c-.06.57-.02-1.73-.07-3.29.27.59.17,2.38.07,3.29ZM6.44,43c.08.07.06.61.07.96h-.19c-.07-.75.09-.58.12-.96ZM6.39,48.33s.07.08,0,.11c.31.18.27.88.15,1.17-.05-.42-.2-.61-.15-1.28ZM27.87,95.77c-.47.17-1.81.05-2.53,0,.19-.11,2.23-.03,2.53,0ZM9.96,74.49c.03-.09.06-.13.08.03-.02,0-.06-.02-.08-.03ZM26,94.43l-.8.02c.3.02,1.07-.07,1.27.05-.63,0-1.77.04-2.45-.03l1.18-.04c-.81,0-1.42,0-1.93-.04.93,0,2.09-.02,2.73,0v.04ZM48.46,96.07v-.12c.13,0,.22,0,.21.1-.06,0-.14.02-.21.02h0ZM336.86,69.75c-.69.06-1.12.2-1.74,0,.29-.31.81-.27.97-.37-.4-.29-1.79.34-2.32,0,.85-.04,3.03-.72,3.09.37h-.01.01ZM328.74,91.18c.27-.08.47.06.38.33-.23-.04-.43-.11-.38-.33ZM309.39,95.7l-.34.03v-.03h.34ZM289.16,95.52c.04.25-.49.16-.62.05-1.58.17-.11-.47.56-.11-.33,0-.42-.04.07.05h-.01ZM249.8,95.29c-.07.03-.15,0-.26-.02.09,0,.17,0,.26.02ZM228.29,93.83c.2-.02.44-.12.51-.14-.06.23-.34.17-.51.14ZM214.45,95.49c.81-.38.95.18,0,0h0ZM203.97,95.21c-.13-.03-.25-.08-.37-.09,0-.13-.07-.29.23-.32-.05.14.28.24.79.32-.21.03-.43.05-.65.08h0ZM187.82,93.79c-.41,0-.75,0-1.05-.02.07-.34,1.37-.27,1.78-.08-.22.04-.47.07-.73.1ZM185.31,93.43c.29.03,1.03.17.5.29-.85-.08-.76-.16-.5-.29ZM160.83,93.7h-.02c.09.28.09.18,0,.46.08-.03.22,0,.35,0-.06.4-.87.07-.98.04-.1.35.42.29.74.37-.77.04-1.6.04-2.94-.06.37-.07.35-.11.65-.11,0,.02,0,.04,0,.06.45-.07,1.84-.25.58-.23.09-.04.18-.09.25-.13-.51.02-1.02.04-1.21-.17.05.07.07.12.08.16h-.08c-.45.23-1.84.3-2.48.15.22-.05.36-.15.3-.28-.54.23-1.32.09-1.83-.17-.04.1-.24-.01-.31.02,1.11-.63,2.28-.11,3.45-.34-.37-.04-.71-.1-1.01-.19.32-.07.45,0,.78.08,0,0,0,.02,0,.03.41-.11.61.31.95.27v.04c.58-.15.97-.1,1.48-.11,0,.09-.06.16-.1.23.3.07.94.47,1.1.08-1.57.09-.43-.56.29-.17l-.02-.03ZM153.76,94.21h.03s-.02.03-.03.04v-.03h0ZM146.24,94.61h0,0ZM132.36,95.65s.1.02.15.03h-.24s.06-.03.09-.04h0ZM126.6,96.7c-.16.4-.78.05-1.22.11.4-.32.64-.3,1.33-.48-.17.15-.81.31-.11.37ZM108.8,98.13h-.16v-.39c.67.11,1.54-.12,2.31.06-.68.42-1.42.2-2.15.33ZM106.72,98.16c-.16-.01-.36.01-.53.02.53-.58,1.95-.17,2.32-.16-.5.26-1.25.03-1.78.13h-.01ZM106.29,98.48c-.27.18-.57.27-.98.19.42-.13.76-.41,1.13-.29-.06.06-.13.1-.23.11h.09-.01,0ZM80.94,92.96c-.08.21-.68.04-.97.11.21-.46.47-.13.97-.11ZM74.17,94.63c-.51-.04-.8-.18-1.24-.31.36-.02.64-.04.74-.08-.36,0-.82.08-1.22-.05.39-.42,1.08-.04,1.82-.2-.03.22-.19.35-.1.65h0ZM70.04,94.77c.14-.04.25.03.37.09-.05-.03-.48.08-.37-.09ZM36.5,93.24c1.93.17,1.69.27.73.34.03-.03.07-.05.09-.09-1.15.19-2.05.24-3.21.09.74-.16.76-.4,1.22-.49-.05.14-.08.28-.21.36.37.06.42-.18.64-.13,1.26-.55,3.6-.05,5.13-.2-.07.24.27.2.45.26-.58.04-1.13.08-1.41.11,1.23-.27-1.99-.24-3.43-.24h0ZM21.56,87.21c-.03-.18-.06-.35-.08-.54h.35c-.01.18-.02.36-.05.54h-.23s.01,0,0,0ZM20.63,73.04c.16-.69-.85-.38-1.06-.19-.01-.34-.02-.66-.03-1,.09,0,.17-.02.23,0v-.28h-.24c-.03-1.2-.07-2.43-.09-3.6.54-.05,1.06-.11,1.59-.19l.02,1.64c.55-.26.14-1.38.25-1.68.13-.02.27-.04.39-.05,0,.11.01.21.02.31,0-.1,0-.21.01-.31h.05c-.06,1.63-.08,3.52-.06,5.39-.34-.08-.69-.1-1.08-.04ZM20.03,83.02s.1-.02.19-.03c0,.31.24.49-.17.47l-.02-.44h.01-.01ZM20.02,82.77v-.16c.09,0,.2.02.32,0-.11.04-.24.08-.32.15h0ZM10.73,69.77v-.15h.15c-.05.11-.09.17-.15.16h0ZM10.41,48.33c-.07.24-.07.6-.19.9-.21-.71.1-1.78-.19-.39-.09-.56-.15-.36-.3-.22.05-.28.08-.65.06-1.22h.19c-.07-1.03-.09-1.18-.06-1.77.03.07.07.16.08.26.1-.12.22-.19.35-.23.03.38.12.57.23,0,0,1-.15,1.21-.24,1.23-.02.76.65,1.71.08,2.17.01-.26-.02-.51-.01-.72h0ZM9.62,48.14c-.04.45.23.73-.17.87,0-.53.02-.96.19-.88h-.02ZM8.34,31.97c.22-.16.17,2.08-.06,1.7.13-.63-.06-1.37.06-1.7ZM10.13,38.16c-.23-.02-.08,1.42-.3,1.48-.03-1.94-.08-3.69.05-5.1.09,1.21,1.05,8.43.19,7.55-.09.04-.19.08-.28.11.08-1.15.22-2.09.46-2.58,0,.28,0,.69.07.72.1-1.36-.31-.88-.19-2.18ZM29.69,5.38c-.16-.02,5.04-.49,4.61.32-5.99-.02-9.96.12-15.68-.07,3.68-.09,8.76-.04,14.58-.16-.5-.19-2.35.04-3.51-.09ZM41.68,5.25c.49,0,.97.05,1.48.08-.3.02-4.43,0-1.48-.09h0ZM106.78,3.51c.14,0,.29.02.44.04l-.28-.04c.38-.04,1.68.03,2.07.05-1.2.12-2.46.05-3.64.03.38-.09.91-.08,1.41-.08ZM108.16,1.89c-.21,0-.39,0-.57-.02-.03-.3.9-.28.57,0h0v.02ZM105.29,1.74c.11,0,.23,0,.35.02-.02.09-.06.17-.12.24-.07-.17-.15-.24-.23-.25h0ZM111.39,2.61c-.13,0-.25,0-.37-.02.12-.09.25,0,.38.02,0,0-.01,0,0,0ZM110.12,2.56c-.46.22,2.99.11,1.22.31,6.33-.07-2.36.56-.61,0-.49.05-1.14.03-1.54.03l.68-.27h-.13c.1-.05.21-.1.31-.16.02.04.06.06.08.1h-.01ZM159.01,2.72c.36.11.72.23.83.64-.45.09-.75-.13-.83-.64ZM167.74,3.6h.21s-.12.02-.2.03v-.03h-.01ZM188.06,3.17c.49.13.36-.42.84-.29-.05-.11-.06-.26-.09-.39.27,0,.5,0,.74.03-.16.04-.31.1-.42.21.53-.07.77.22.86.68-.73-.17-1.36.33-1.94-.25h0ZM188.3,2.51h.1s-.05.1-.09.11v-.11h-.01ZM188.82,2.45s0-.05-.02-.08c.09.03.18.04.28.06-.09,0-.17,0-.25.02h0ZM205.93,4.53c.87-.13,1.9-.06,2.84-.05-.05.04-.11.09-.15.15.08,0,.16.03.21.07-.97-.12-2.02.14-3-.15v.12h-.67s.03-.06.06-.11c-.07-.02-.1-.07-.13-.13.3,0,.57-.01.86.11h-.02ZM223.85,4.52h.24c-.09.06-.2.13-.28.25,0-.1,0-.18.04-.25ZM261.23,9.67c.28.21-.57.06-.8.08l.8-.08ZM332.06,16v.11c-.22-.04-.47-.06-.75-.09,0-.12.01-.26.02-.38h.73v.35h0ZM330.95,65.85c.15-.54.72.08,0,0h0ZM331.65,69.24s-.1.08-.17.11v-.11c.06,0,.13.01.17,0ZM294.46,95.47c-.01-.08-.05-.18-.13-.28.28.03,1.08-.14,1.11.29-.33,0-.66.02-.98,0h0ZM221.82,92.46c.19-.45.85.06,1.17-.02-.25.19-.74-.05-1.18.02h0ZM212.74,95.22c-.9.04-.61.26-1.52.11.42-.16,1.13-.08,1.52-.11ZM153.63,93.87c-.18-.04-.1-.29-.49-.18,0-.27.5-.18.85-.19-.04.19-.32.19-.36.38h0ZM151.57,93.8c.15-.18.48-.2.71-.14-.11.21-.47.31-.71.14ZM143.46,94.21s0-.02-.02-.04c.02,0,.05.02.07.03h-.05ZM140.75,93.74c-.46.09-.99.11-1.6.13.05-.02.1-.04.15-.06-1.06-.17,1.19-.19,1.45-.07h0ZM108.24,96.83c-.45.64-1.41-.25-.13-.27,0,.13-.01.27.13.27ZM94.12,97.18c-.07-.04-.1-.09-.09-.19h.49c.05.2-.31.13-.39.19h-.01ZM69.94,92.8c-1.6-.83,5.02-1.27,2.74-.11.02-.07.12-.1.12-.19-1.47,0-1.7.13-2.86.29h0ZM70.38,93.56c.43.02-.3.35.13.37-.43.29-.61-.24-.13-.37ZM71.81,94.27c-.24.02-.45-.05-.69-.1.27-.09.53-.19.86-.1-.02.09-.11.13-.16.19h0ZM58.8,91.83c-.79.08-1.62-.05-2.53-.03,1.02-.15-.95-.02-.66-.19,1.4-.12,2.19,0,3.17-.05-1.99-.3,5.41.12,5.68-.24.18.04.35.05.58.07-1.85,1.02-4.2.45-6.25.43h0ZM40.17,84.74c-.81-.04-1.4-.07-1.82.05l.03-.14c-.58.04-3.06.23-3.29,0,1.28.05,2.63-.19,4.19,0-.06-.28-3.52-.11-4.62-.12,2.72-.43,5.39-.05,8.04-.16-.33.47-2.93-.13-2.38.23-.2.05-.23.08-.16.15h.01ZM22.87,86.44v.13h-.05v-.13h.05ZM21.28,14.46h-.16c-.02,1.61.1,2.71.14,4.11h-.02c-.2-1.63-.23-2.64-.31-4.26.3,0,.67-.02,1.09-.04,0,.09-1.48,0-.72.19h-.02ZM22.06,33.99l-.06.92c.22-.71.48-1.08,1.26-1.16.04.63-.17.82-.16,1.02-.37.23-.75.43-1.11.47l.02-.33c0,.09-.02.19-.02.33h-.02c0-.46.03-.88.08-1.24h.02-.01ZM40.17,14.74c-.28.04-.69.05-1.25.05-.06-.23,5.01-.02,1.25-.05ZM119.98,3.55v-.14h1.24c-.35.05-.82.13-1.24.13h0ZM204.82,4.44c.08.06.14.16.2.21-.19,0-.4.05-.39-.21h.2,0ZM243.14,8.99c-.68.05-1.36.02-2.04.04-.42-.21,1.44-.11,1.71-.13-.05.05.08.08.32.09h0ZM276.93,9.65c.36.04.69.08,1.03.11-1.11.07-2.23.09-2.99-.1.82.02,1.44,0,1.96,0h0ZM298.19,9.88c4.47-.27,10.02-.47,14.8-.16-5.05-.02-9.55.19-14.8.16ZM291.33,9.63c.37-.01.58,0,.93.02l-.96-.02h.04-.01ZM330.57,70.88h-.08c.03-.21-.35-.4.08-.38v.39h0ZM198.92,92.7h-.27c.08-.1.3-.23.27,0ZM197.16,92.99h-.02.02ZM143.8,93.8c-.42.15-1.19.06-1.82.11.44-.36,1.21-.24,1.7-.4-.2.09-.42.34.13.27h0v.02ZM94.77,96.83c.01.05,0,.09,0,.12-.4-.19.28-.29.6-.25v.28c-.2.02-.49-.06-.6-.16h0ZM52.68,90.89c-.32,0-.69.02-1.06.04v-.02c-1.21.08-3.01.09-3.72-.1,5.7-.08,11.78-.05,18.12-.15-.14.2-.7.13-.94.17.07,0,.12.03.14.06-4.92-.02-8.27.05-12.55,0h.01ZM48.01,87.13c.24-.47.72.22.84-.19-.53-.11-.76.11-.97-.27.33-.41,1.33.18,1.23.45.41-.11.31.03.1-.56-2.56-.47.54-.62,1.2-1.03.1.2.88.37,1.1.18-.22.02-.29-.09-.24-.27,1.77.38,2.79.32,4.39.42-.44.27-.68.14-1.22.29.25.15.64.19.74.46-.41.2-.74.36-.72.66-2.09.19-4.24-.09-6.4-.04,0-.03-.03-.07-.06-.09h.01ZM22.63,63.92c.2,0,.38-.03.51-.09,0,.04-.01.06-.02.1-.14-.03-.28.03-.42.18-.03-.05-.06-.11-.08-.19,0,0,.01,0,.01,0ZM20.03,59.59c-.09-1.16-.15-2.77.09-3.14.02,1.1-.1,1.88-.09,3.14ZM19.16,58.94c-.03-.76.14-1-.07-1.21-.01,1.7.03,3.3.09,4.45-.48-3.2-.11-5.02-.34-8.69.06,0,.12.02.17.03-.15,1.99.38,2.38.14,3.46-.01-.19,0-.48-.06-.48.13.74.76,1.54.06,2.43h.01ZM204.78,4.76c.35.05.68.11.27.17-.1-.04-.18-.1-.27-.17ZM206.52,4.84c.54.04.42.06.16.07-.06-.03-.1-.04-.16-.07ZM207.56,4.92c-.24.11-.6.07-.83-.02h.83v.02ZM190.56,92.48c-.31-.11-.67-.1-1.05-.13.42-.04,1,.05,1.53-.07,0,.11-.21.18-.48.2ZM60.29,87.17c-.02-.17.15-.19.12-.37-.38.05-.42.36-.84.38v-.37c-.62.02-.52.53-1.22.38.02-.11-.03-.17-.13-.19.1-.09.19-.2.29-.29.25.32,1.53-.07.79-.17,3.3-.42.22.28-.35-.39.36,0,1.2.24,1.2-.29,1.48.12,2.36.21,3.98.23-.13.12-.62-.05-.94.11.34.27,1.39-.07,1.59.07-.02-.06-.05-.12-.07-.18.54,0,.7.6,1.53.53-.1.14-.44.07-.07.12-.02.07-.05.15-.03.25-1-.23-2.79.09-4.37.18.05,0,.07-.03.07-.04-.46.06-1.08.04-1.54.04h-.01ZM60.97,85.39c1.24-.19,1.84-.21,2.92-.04-.26.09-.56.4-.84.19v.04c-.6-.03-1.12,0-1.44.11-.19,0-1.3.4-1.01-.31.21.26.9.31.37,0h0ZM20.48,55.47c.29,0,.16.97.08,1.29-.03-.42-.06-.85-.07-1.29h-.01ZM195.94,91.94s0,.02.02.03h-.75c.14-.17.48-.06.72-.11,0,.03,0,.05,0,.08ZM21.06,45.25c0,.12.02.24.02.35h-.02v-.36h0ZM22.31,48.89c0-.09.02-.18.03-.27,0,.08-.01.17-.01.26h-.02ZM22.46,48.07s-.06.11-.08.21c.09-.75.16-1.42.19-1.99-.03,0-.07-.04-.09-.12.09.02.2.04.23.23.23-.2.46-.28.71-.31-.01.09.02.23-.08.27.1.43-.08,1.01-.09,1.42-.78-2.99.37.4-.74,1.04-.02-.22-.03-.47-.05-.76h.01-.01ZM37.02,24.82c.45-.04.72.27,1.09.61,0,0-.03.02-.05.03-.02-.03-.05-.04-.07-.06-.31.33-.68-.38-1.05.49-.15-.3.06-.57-.05-.87.24,0,.45,0,.61.04-.05-.14-.51-.05-.49-.24h0ZM216.89,7.36c1.09,0,2.06.06,3.23.1-2.29.19.89.14,1.92.14-1.63.26-4.01.11-5.97.16,0-.06.13-.12.25-.14-.06-.04-.13-.05-.2-.06.23-.12.5-.16.76-.19h.01ZM221.55,7.52c-.42.04-.75-.05-1.31-.09.44.02.88,0,1.31.09ZM227.66,7.42c-1.12.02-2.25,0-3.28-.02,1.06-.02,2.15,0,3.28.03h0ZM23.14,48.57v-.3c.44-.44.43.11,0,.3ZM215.7,7.75h-.08l.12-.04s0,.03-.04.04ZM224.29,9.25c-.16,0-.35-.03-.53-.04.05-.32.38-.16.61-.19,0,.12-.05.17-.08.23ZM223.17,9.31c-.06.07-.95.02-.94.1-1.65-.19.49-.21.94-.19-.2.04-.37.09,0,.09ZM37.36,45.77c.06.47-.38.25-.46.59-.51,0,.28-.53.46-.59ZM34.22,50.53v-.63c.09,0,.19,0,.28.03-.42-.09-.25-.44-.28-.8.29.13.49.3.29.6h.09c0,.29,0,.56.02.77,0,0-.39.03-.41.03h0ZM42.27,44.45v-.03s.09.02.13.04c-.05.06-.1.1-.15.14,0-.06,0-.11.02-.16h0ZM298.2,63.85c-.21-.11-.06-.46-.58-.38.32-.53.84-.1.61.37h-.03ZM34.36,49.18c-.24-.46-.03-1.24.22-1.72v1.71c-.06,0-.14.02-.22,0h0ZM48.09,44.66h.05c-.02.08-.03.14-.03.21h-.03c.04-.07.07-.14.02-.2h-.01ZM34.59,47.46s-.07-.02-.1,0c0-.03,0-.06-.02-.1.04.05.11.05.13.11h-.01ZM37.13,47s-.09,0-.14.02c0-.09.19-.12.19-.2-.02.06,0,.15-.05.19h0ZM36.82,47.04c.07.05.12.13.07.23-.13-.05-.24-.11-.36-.16.1-.03.21-.04.29-.07ZM35.25,48.09c0-.25-.02-.5-.03-.75.16.27.52.09.78-.04-.02.11-.19.23,0,.35.02-.13.07-.23.12-.3.06.26-.1.39-.27.51-.05-.11-.09-.22-.15-.32-.06.24-.02.6-.44.53h0v.02ZM299.46,46.63c-.01-.18-.16-.4,0-.52v.52ZM297.09,47.09c0-.19.08-.37.17-.56.02.21.07.42.16.59-.12.04-.23.07-.34-.04h0ZM297.1,46.56c-.65.5-1.23.76-1.65,1.34.05-.7.75-1.82,1.65-1.34ZM295.2,47.78c.07.38,0,.52-.1.76-.27-.29-.27-.52.1-.76ZM52.77,45.51h0,0ZM63.65,44.56c.75-.2.77.11,1.09.18l-.13-.15c.22-.06.35.03.46.06l-.03-.31c1.04,0,1.74-.1,2.48-.03-.98.67-2.92.62-3.87.25ZM66.46,43.26c-.16,0-.27-.06-.37-.13,0,.07,0,.11.02.16l-.05-.02c-.02.06-.14.1-.27.12.03-.09.06-.16.05-.27h-.01s0-.11.05-.17c.34.48.51-.3.91,0h-.2l.07.02c-.09.06-.14.19-.21.27v.02ZM72.18,42.26s-.02.08-.03.11c-.06,0-.12-.03-.16-.04.07-.02.14-.04.21-.08h-.02ZM74.32,42.44c1.06-.16.65.19-.17.14.18-.05.22-.09.17-.14ZM72.88,42.29c.06.08.12.12.17.15h-.21v-.14h.04ZM70.38,42.63h0c.5-.09.91-.23,1.4-.26-.42.17-.91.23-1.41.26h.01ZM55.06,43.65h.21c-.03.09-.08.17-.09.23-.06-.03-.13-.07-.19-.12.02-.04.05-.06.07-.1h0ZM55.44,43.63c.16,0,.34.02.5.12-.27.21-.83.29-.5-.12ZM56.8,43.54c-.23.34-.81.36-.78.03.24.22.52-.19.78-.03ZM65.53,43.01c.06.04.08.09.09.13-.1,0-.22,0-.32.02.08-.04.15-.09.23-.15ZM65.71,43.36s.03.03.06.04c-.09.02-.19.03-.24.04.06-.03.13-.04.2-.08h-.02ZM68.21,42.87h.01-.02s.01,0,0,0ZM69.11,43.02h-.05.05ZM70.33,43.4c0-.06-.02-.12-.03-.18.1.11.17.28.2.52-.17-.07-.34-.08-.5-.04.12-.1.23-.19.34-.3h0ZM67.79,44.23c-.28-.02-.12-.16.22-.15-.07.06-.17.09-.22.15ZM54.52,45.45s.03-.03.06-.04c-.02,0-.05.02-.07.03-.06-.19.09-.22.24-.24,0,.16,0,.27-.24.26h0ZM54.11,45.55c-.08.02-.16.04-.25.05v-.12c.1,0,.18.04.25.07ZM57.49,43.69c.2.19-.56.33-.17.52.14-.37.49-.47.8-.56-.21-.07-.42-.19-.62-.1-.03-.07,0-.13-.06-.2.43-.23.83.27,1.27-.2.07.7,1.41-.36,1.25.44.16.11.34-.19.49.09.15-.08.09-.17,0-.27.85.35,3.7-.66,3.29.21.9.2.52-.72,1.13-.4-.12.06-.21.15-.24.31.31-.07.69.48.86.12-.19-.12-.15-.19-.06-.23.39.15,1.01.02,1.67.13l-.38-.12c.05-.13.14-.19.17-.27.02.02.05.04.09.07.02-.05.05-.1.03-.15.5.19,1.21-.21,1.27.54.59-.21-.28-.36-.19-.67.46.23.9.13,1.37,0-1.69,1.56-3.31.76-5.59,1.1,2.75-.49-5.28-.47-5.61.23.46-.04,1.2-.27,1.59.11-.57-.03-.78.1-1.34.13,2.48-.02,1.71.27,3.87.28l-.47-.19c1.11-.37.92.45,1.74.15.09,0,.19,0,.23.04-1.41.32-3.47.82-4.5.53-.76.2-1.57.28-2.42.32-.02-.27.09-.48-.23-.5-.03.35-.05.54-.29.51.09-.19-.08-.24-.22-.1-.16-.16-.34-.44-.44-.73.17.67-.19.96-.75.85.09-.04-.07-.07-.24-.1.12-.13.82,0,.41-.5h.05c-.17-.06-.28-.06-.42-.29-.03.07-.05.14-.06.21h-.13c.24-.89,2.2-1.06,2.87-1.33l-.03.02ZM48.05,47.05s0-.03,0-.04c.03,0,.07,0,.1.02-.02.02-.06.03-.09.03h0ZM52.14,45.15c.06,0,.12.03.16.04-.05,0-.1,0-.16-.04ZM51.47,45.29c.09-.1.28-.2.4-.16-.08.17-.24.21-.4.16ZM51.37,43.88c.1.09.2.19.13.27.03-.08.44-.45.74-.41.06-.16.41-.15.56-.19.06.34-.72.49-.67.69-.16-.14,1.82-.15.43,1.11-.02-.06-.05-.1-.07-.12.82-.26-.36-.04-.53-.34-.61.5-.18-.36.45,0-.16-.72-.9.12-1.15.09.02,0,.05-.02.07-.04-.05,0-.07-.02-.12-.02.06-.08.14-.11.08-.46,0,.07-.05.13-.08.18.07-.25.08-.51.16-.74,0,0,0-.02,0-.02ZM50.54,44.2c-.03.1-.07.19-.09.28-.03-.08-.09-.14-.17-.19.09-.03.19-.06.28-.09h-.02ZM33.79,47.98v.11s-.03-.08-.06-.15c.02,0,.05,0,.06.04ZM33.68,47.7v-.02h0v.02ZM34.91,47.69s-.02.04-.03.05v-.2s.02.09.03.15ZM34.85,48.27s.07-.03.1-.05c0,.26,0,.54,0,.81-.02-.03-.07-.04-.13-.04,0-.24.02-.49.03-.72h.01ZM48.09,44.91h-.03.05-.02ZM47.18,44.91h-.02.02c-.02.17-.09.3-.29.24.12-.15.24-.07.25-.31.02.03.03.04.05.07h0ZM36.53,47.1s-.03-.02-.06-.03c.03,0,.06.02.06.03ZM34.9,49.76c0,.08,0,.15,0,.21-.02-.06-.03-.14-.05-.22.02,0,.05,0,.06.02h0ZM44.49,44.82c.11.09-.12.17-.19.22,0-.02-.02-.04-.03-.06.07-.03.15-.06.23-.15h-.01ZM40.19,45.99v.05h-.06s.05-.04.06-.05ZM295.4,57.58c0-.19.02-.36.04-.53.1.16.21.31.31.47-.15-.85.86-.63,1.28-1.1.04.18.08.35-.02.52.09-.03.2-.04.29-.07.03.21.09.4.18.54,0-.16,0-.36-.02-.57.12-.03.23-.05.35-.09.03.28.06.57.07.87-.88-.04-1.74-.06-2.49-.04h.01,0ZM47.49,44.77s-.06-.02-.09-.03c.03-.02.04-.06.09-.05v.09h0ZM40.15,45.31c.03.14-.15.28-.22.38-.02-.14-.09-.26-.12-.39.1,0,.24-.06.34,0h0ZM37.9,46.94h.03-.03ZM37.6,46.85h0,0ZM36.07,46.58v-.03h.16s-.1.02-.16.03ZM33.79,50.28c.27-.27.25-.36.3.26l-.3.02v-.27h0ZM295.88,63.35c.05-.18.31-.21.38-.37-.18.02-.39.04-.61.06-.07-.27-.16-.57-.26-.83.22,0,.41-.02.44-.09-1.35-.21.02-.72-.36-1.55.58-.07.35-.32-.02-.28-.02-.32-.05-.69-.06-1.07.12,0,.22-.04.28-.05-.53-.02-.19-.74-.28-1.14.84-.3,1.57-.16,2.52-.27-.31,2.11.59,2.73.43,5.01-.29.03-.57.05-.83.08.27.03.54.04.83.05v.04c-1.33-.02-.94.69-2.47.41h0ZM40.14,45.21c-.03.11-.21.05-.31.08-.02-.09-.05-.18-.06-.26.14,0,.41-.04.36.18,0,0,0,0,.01,0ZM39.02,46.6c-.16.24-.5.28-.73.3.13-.33.44-.34.73-.31h0ZM36.31,46.37h-.2c.03-.14.06-.28-.17-.44.25-.04.53-.34.78-.04-.34-.02-.48.21-.41.48ZM33.8,50.55c.09.03.2.03.3.02.03.31.16.19.13,0,.13-.02.25-.04.39-.06.02.34.07.53.16.43-.25.38-1.09.11-.97-.4v.02h0ZM38.51,45.59c.06.07.32-.04.46.04,0-.02.02-.04.03-.06.02.12.05.25.07.38-.4-.07-1.03.34-1.52.21-.02-.14-.06-.27-.09-.42.34-.12.71-.15,1.04-.14h.01ZM221.27,9.23s-.02-.02-.04-.03c.17-.05.38-.03.56-.04-.12.04-.3.05-.52.06h0ZM44.09,24.8s-.07.05-.1.09c0-.03-.03-.06-.05-.09,0,0,.15,0,.15,0ZM222.2,9.18c.5.05.87-.18,1.32-.16-.11.41-.91.06-1.32.15h0ZM41.79,24.73c.29.03.56.06.78.1.15.65-.66.55-1.1.64,0-.22.12-.62.32-.73h0ZM226.19,9.18c.77.03.06.25-.15.16.04.02.07.04.12.05-.49,0-1.19.16-1.4-.38.81,0,1.71,0,2.65-.02-.17.19-.98-.13-1.21.19h0ZM222.5,7.41s.05.02.06.03c-.17,0-.36,0-.52-.02h.46ZM38.36,24.97s.06.02.12.03c0-.11.28,0,.52,0-.22.1-.43.05-.64-.04h0ZM22.98,44.86c-.11.35.03.69.31.9-.46-.13-.5-.57-.31-.9ZM194.89,91.92v.04h-.46c.14-.02.3-.04.46-.04ZM227.71,9.34s-.05-.04-.08-.04c.06-.19.29-.2.46-.11h-.23c.13.06.05.11-.15.16h0ZM229.1,9.14c-.24.04-.43-.04-.6-.15.32,0,.65,0,.97-.02-.11.08-.23.15-.37.17ZM226.85,7.24c.27.04.54.09.86.17-.4-.05-.67-.11-.86-.17ZM38.82,24.82h-.12c.15.09-.43.09-.42.13-.12-.05-.23-.11-.35-.18.27.05.63-.14.88.05h0ZM37.95,24.53c.17.25-.28.03-.46,0h.46ZM36.84,24.91s-.03-.05-.06-.08c.05,0,.09,0,.14.03-.07,0-.09.03-.09.05h.01ZM36.29,25.16c-.37-.44.26-.36.46-.34-.16.19-.31.08-.47.34h.01ZM22.72,44.62c.36.19-.06.34.12.53-.15.05-.29.09-.44.12,0-.28.15-.44.32-.65ZM21.06,45.78h.03c.06,1.03-.17,2.38-.06,3.28h-.05c.13.23.08.34-.09.53.07-1.36.14-2.68.15-3.82h.02ZM193.58,92.14c.47.03.86,0,1.32.03-.64.02-1.19.04-1.6.1.06-.04.17-.1.28-.12h0ZM230.56,8.95h.35c-.14.03-.27.08-.36.17,0-.05-.02-.12,0-.17ZM228.25,7.4c.28-.06.57-.06.86-.03-.28,0-.57.02-.86.03ZM20.81,54.83s0-.05.02-.08v.24-.16h-.02ZM66.74,86.79c.27,0,.47-.04.78.1-.22.04-.52-.04-.78-.11h0ZM67.72,86.66c-.6,0-1.05,0-1.35.02.12-.27,1.47-.13,1.35-.02ZM65.86,86.36c.02-.13.36-.04.36-.19.21.02.28.16.25.37h-.6c.08-.07.13-.2-.01-.18ZM63.91,85.66h-.06s.02-.02.03-.02c0,0,0,.04.02.02h.01ZM197.07,92.12c0-.05-.13-.09-.31-.11.52-.08,1.07-.03,1.52.05-.39.06-.79.03-1.2.05h-.01ZM237.02,8.9c-.02.16-1.69.23-2.58.33-.25-.57-2.02.09-2.78-.29,1.88-.04,3.74-.05,5.36-.04ZM231.2,7.26c.06-.04.13-.07.18-.11,0,.05.02.09.05.11h-.23ZM235.09,4.55l.14.02s-.09,0-.14-.02ZM208.12,4.96h-.12v-.04h.35c-.07,0-.16.02-.23.03h0ZM35.03,25.22c-.17-.16-.22-.32-.23-.47h.5c-.13.06-.24.16-.28.46h0ZM23.06,38.6h.16c0,.55-.05.25-.12.2.04.5.08.82-.3,1.03.1-.42-.26-1.26.25-1.24h.01ZM22.18,37.99s-.05.15-.1.18c0-.11,0-.21-.01-.32.03,0,.07-.02.1-.03.02.06.02.11,0,.17h.01ZM21.2,40.02h-.15c0-.3.03-.61.05-.83.14.12.13.44.1.84h0ZM20.55,57.4c.03.11-.1.48-.13.58.02-.19.07-.38.13-.58ZM20.61,57.32v-.02.04-.02ZM23.53,59.48c0,.96-.27,1.57-.52-.3.19.08.36.21.52.3ZM23.16,63.46s-.03-.02-.05-.02c0-.04,0-.09.01-.13.02.05.03.11.03.16h0ZM65.11,91.33c-.09.12-.36,0-.46,0h.46ZM197.09,92.72c.03.5-.98.16-.97.07.2-.09.76-.07.97-.07ZM327.68,92.93c.09.07.15.14.02.16,0-.05-.01-.11-.02-.16ZM327.64,92.69s0-.08-.01-.11c.06.04.12.07.15.11h-.14,0ZM303.03,10.76c-1.59.09-3-.2-.34-.19-.03.08.39.1.34.19ZM280.68,9.79c-.22.19-1.98.11-2.5.1.78-.18,1.7-.02,2.5-.09h0ZM250.22,9.54c.14,0,.28-.03.4-.04-.12.1-.26.03-.4.03h0ZM238.63,8.98c.26-.04.54-.07,1.02-.07v.11c-.32,0-.67-.03-1.02-.04ZM235.28,7.28s0-.04,0-.07c.3.03,1.41-.28,1.69.07h-1.68ZM212.75,4.56c-.83.05-1.72.54-2.45.08h.62v-.04c-.25-.06-.66.17-.73-.14h.71v.15c.61-.02,1.21-.03,1.85-.04h0ZM209.52,4.47h.36c-.13.04-.24.03-.36,0ZM208.86,4.82h-.87v-.05c.36,0,.66,0,.86-.04,0,.03,0,.05,0,.09ZM207.67,4.82c-.14-.01-1.25.05-1.33-.08.49,0,.96.03,1.37.03,0,.02-.02.04-.04.05ZM206.07,4.94c-.28.04-.68.1-.99,0,.59-.06.85-.14-.13-.23.39.04.89-.13,1.14.24h-.02ZM160.94,3.4s.05.1.05.16c-.22.03-.54.04-.87.03.03-.29.6-.09.83-.18h-.01ZM159.88,3.58c-.12,0-.24,0-.32-.1.1,0,.21,0,.31-.02,0,.04,0,.07,0,.11h0ZM22.98,32.98c-.15-.13-.06-.26,0-.39-.04.14,0,.28,0,.39ZM19.31,62.21c-.18-2.01.25-4.73.44-6.45.22,3.31-.2,2.64-.16,4.86.13-.24.06,1.42.07,1.65-.12-.03-.23-.04-.36-.06h.01ZM19.88,62.32c-.09-1.14-.27-2-.12-2.93.02,1.04.12,1.8.31,2.17.03-1.05-.25-.77-.19-1.93.11.08.09.3.03.43.03-.02.07-.06.09-.11.01.06.03.11.06.14.01-.52.18-1.17.13-1.95.06,1.34.1,2.57.19,3.63-.16-.06-.25.3.01.25.2-1.65-.05-2.59,0-3.6.24,1.64.44,2.8.52,4.44-.55.09-.54-.4-1.04-.55h.01ZM21.09,62.89c-.03-.58-.17-.8.05-1.42.05,1.66.16-.24.39-.71.02.49.05.97.07,1.42-.33-.42-.05.53-.02.79-.15-.04-.31-.06-.49-.08ZM22.59,62.85c-.03-1.81-.16-3.46-.23-4.95.31.58.81,1.26.64,2.01-.44.04.48,1.38.05,3.49-.34-.08-.53-.19-.45-.56h0ZM22.52,68.6c0-.34,0-.68.01-1.02.23-.03.46-.06.69-.08.24,1.5-.21,3.15-.08,4.5h-.08c.12.51.06,1.02.06,1.54-.76-.93-.43-3.02-.6-4.94ZM22.62,73.06c.1-.11.13.08.13.36-.2-.02-.14-.21-.13-.36ZM40.91,84.69s-.05-.03-.07-.04c.25-.07,1.17-.07,1.6-.03-.06.03-.12.05-.2.06.08,0,.15.02.22.03-.29.05-1.11-.02-1.56-.03h.01ZM39.03,87.13h-1.19c.31.02,1.64-.36,1.18,0h0ZM33.65,87.14c.14-.12.35-.04.53,0h-.53ZM34.42,87.14c.08-.03.16-.09.22-.22.17.1.42.17.67.22h-.89ZM41.74,93.12c-.07,0-.13.02-.16.04v-.04h.17,0ZM42.86,93.24c-.16.03-.41.05-.71.08.19-.09.44-.11.71-.08ZM61.85,92.06c-.3.03-.65.21-.91,0h.91ZM92.91,96.36c1.18-.34,2.62-.27,3.77-.33-.91.46-3.14.31-4,.51.05-.07.13-.13.23-.19h0ZM133.83,94.01h.49c-.04.25-.31.32-.6.38.1-.09.13-.22.12-.38h0ZM135.29,94.27c.1.35-.57.12-.85.19.17-.27.32-.11.85-.19ZM143.78,93.71c.1-.25.34-.21.57-.19-.1.19-.39.32-.57.19ZM195.7,94.14c.09.02-.49.27-.59.03.19,0,.38-.02.59-.03ZM206.35,94.24c.21.1.43.27.43.42-.33,0-1.31.1-.43-.42ZM206.73,94.75c-.07.08-.26.13-.61.14.06-.08.35-.09.62-.13h0ZM207.63,94.78c-.14-.02-.3-.05-.38-.1.1,0,.21-.03.3-.04h-.34s.03-.05.16-.05c-.16-.1-.59-.1-.52-.27.57.09.54,0,1.03.19-.14.08-.26.15-.24.28h0ZM330.55,69.57c-.3-.03-.13-.36-.17-.58.29,0,.13.37.17.58ZM330.93,16c-.77-.07-1.57-.15-1.92-.28.71-.04,1.33-.06,1.92-.06v.34ZM285.28,9.55c.16.04.57.07,1.04.09-.1.02-.2.05-.23.1.24,0,.59-.03.94-.04-.1.04-.22.08-.35.11.32.04.67.05,1.03.05-5.48.04.92.06,2.55.14-.45-.8,4.85-.02,6.44-.22h-.05.51c-1.82.14-4.86.04-6.27.18,1.24,0,2.43.02,3.62.03-.52.02-1.08.09-1.26.18.86-.07,3.37.21,1.96-.17,3.92.15,7.86-.15,11.91.21-3.43-.09-7.92.61-7.28.25-2.27-.12-4.82.15-8.26-.03-1.84.27-.32.17.36.46-1.49.16-5.32.4-6.98.02-5.78.1.96-.08-2.26-.37.95-.1.87-.34,2.19-.38-.59,0-1.07-.03-1.29-.09.22-.11,1.2-.11,1.25-.24-1.06.05-2.38.03-3.73-.05,1.33-.06,2.6-.18,4.18-.22h-.02ZM279.03,9.03v.03h-.54c.16-.03.36-.04.54-.03ZM279.53,9.63c-.58.08-1.37.04-1.82-.04.64-.02,1.28-.29,1.82.04ZM251.14,9.59h-.43c.05-.18.39-.06.56-.1-.11.03-.15.06-.13.11h0ZM237.37,7.28s-.03-.06-.03-.11c.46-.06,1.4-.27,1.94.11h-1.91ZM243.07,5.26h.07s-.07-.05-.17-.07c0-.02,0-.04-.02-.04,1.76-.09,1.7.24.13.18,0-.02,0-.04,0-.06h-.01ZM242.01,5.06h.16s-.08.03-.17.03c0,0,0-.02,0-.04h0ZM239.73,4.62c-.22-.08-.5.42-.6,0,.12,0,.45-.02.32-.17.14-.02.25,0,.28.16h0ZM225.34,4.54h.23c-.04.09-.16,0-.23,0h0ZM217.13,4.61c-.22-.04-.46-.07-.71-.1h.82s-.08.06-.13.11h.02ZM201.63,4.46l2.31.09-.27-.14c.23,0,.45,0,.68.03-.95.39-2.61.13-3.21.06.15,0,.31-.03.49-.04h0,.01ZM186.85,3.33c-.1-.09-.22-.17-.24,0-.13-.04-.09-.27-.24-.27.07-.11.13-.23.12-.42.14.04.31.24.13.27.08.14.28.15.24.42h0ZM187.2,2.49c.08.52.11.6-.12.96-.19-.29-.38-.94.12-.96ZM161.2,3.24c-.13-.08-.18-.17-.2-.27h.51c.02.15-.03.26-.31.27ZM160.85,3.32c-.22,0-.43.02-.66.03.16-.16.49-.17.66-.03ZM121.22,3.23c-1,.07-3.06.08-3.69.34.44-.36-2.74.32-3.26-.25,2.87.26,3.37-.35,6.96-.07v-.02h0ZM46.87,4.91c.2,0,.38.02.58.03-.13,0-.67.09-.58-.03ZM45.85,5.3c-.24.04-.32.11-.3.19h-1.27c.09-.12.82-.16,1.57-.19ZM43.45,5.32c-.17.02-.49-.03-.66-.06h1.13c-.08.04-.31.05-.47.06ZM38.36,14.98c-.13.24-2.14.2-3.33.19-.09-.22,1.79-.19,3.33-.19ZM34.74,15.22c-1.99,0-3.28-.11-5.35-.08.79.1,2.13.13,4.14.13-4,.24-6.62.29-11.06.23-.07.44.05,1.21.21.16.54.04,1.11.06,1.38.15-.43,0-.82-.02-1.2-.02,0,1.95.27,3.53.17,4.89-.3-.04-.23-.29-.25-.8-.19.32.03,1.24.24,1.03-.08.6.25,1.18-.03,1.69-.02-.22-.01-.5-.01-.8-.15.19,0,.7-.16,1.04.47,2.39.3,3.86.17,6.74-.05-.66-.17-.99-.29-1.4.1-.03.21-.08.29-.18-.15-.02-.27-.03-.37-.03.01-.18.02-.43,0-.79-.01.37-.08-.04-.06-.47-.28-.38-.22.97-.13,1.25-.7.04-.04.31.25.21-.01.82.12,1.13.24,1.41-.41.11-.68.54-1.09.52.02-2.02-.46-4.33-.13-7.18.56.05.94-.48.43-.82,0,.36-.2.3-.41.49.29-1.95-.08-2.69-.07-4.49-.01.5-.22,1.39-.12,1.63-.21-.31.02-.79.01-1.2l-.2.02v-1.84s.07.3.06.53c.02-.67,0-1.57-.06-2.58,3.09-.09,7.21-.26,10.24.15-1.32,0-2.44.02-3.08.1,1.68.11,5.16-.27,6.31-.02-.16.4-1.63.01-.1.32v-.03l.03.04ZM23.09,22.85v.13s-.05-.06-.07-.11c.02,0,.05,0,.07-.02ZM9.58,5.65c.2.88.18,1.46.1,2.09-.06-.65-.23-1.45-.19.27-.05-.65-.06-1.51-.06-2.46h4.17c-.5.18-2.93.07-4.04.11h.02ZM9.75,10.01c-.15-.23-.28-1.44-.19-1.97.1.41.21.82.19,1.97ZM9.51,11c.15-.07-.03,1.69.19,1.21-.08.54-.13,1.4-.17,2.16-.13-.47-.08-2.93,0-3.37h-.02ZM9.5,31.9c.09.36.23,1.03.13,1.45-.15-.12-.25-.92-.13-1.45ZM9.58,35.04c.17.03.12,1.01.13,1.69-.37-.72-.1-.72-.13-1.69ZM9.67,28.2c-.31-1.11-.05-4.8-.06-1.12.13.07.02-1.32.06-1.86.19,1.03.05,1.69,0,2.98ZM9.72,31.46c0-.21.01-.44.02-.66.25.91.08,2.62.08,3.5-.03-.98-.11-1.87-.09-2.84,0,0-.01,0-.01,0ZM9.37,45.33c-.09.14-.1.04-.12-.17.03.05.08.11.12.17ZM21.98,84.32c-.02.31-.03.62-.06.93-.17,0-.36.02-.53.04v-1.24c.2.09.39.18.6.27h-.01ZM21.86,86.3c0,.08-.01.16-.02.24h-.37c0-.1-.02-.19-.02-.28.14,0,.28.03.42.04h0ZM22.83,86.67h.06l.03.52h-.13c0-.18.01-.35.02-.53h.02ZM23.05,86.67c.2,0-.06-.08,0-.21,5.5.54,13.28-2.51,17.29-.72-1.31,0-.37.23.24.27-.06-.8,1.06.23,1.2-.48-1.77.19-.08-.45.54-.34-.03.04-.06.08-.06.14.45-.11,1.02-.05,1.59.17.02-.48.67-.32.96-.28-.15.27-.5.31-.84.19-1.17,1.44,1.42-.81,2.07.26-1.06-.06-2.26.41-1.9,1.25-.08-.02-.24-.04-.53-.07.25.05.46,0,.57.13-.3.1-1.85.1.3.18h.24c-.14-.06-.28-.09-.24-.25.25-.04.32.06.49.09-.07.08-.13.16,0,.19-.16,0-.3-.02-.46,0-1.76-.01-3.5-.02-5.27-.02.28-.04.36-.23.51-.37-1.52.07-4.34.75-4.87-.31-.59.26-.64.07-1.34.02,0,.8-1.05-.05-1.57.2-.07-.39-.94-.56-.73-.18.45.29,1.45.5,2.18.65-3.45.02-6.91.04-10.36.06v-.58h-.01ZM34.07,93.69c.12,0,.22,0,.32.02-.12,0-.23,0-.34.02v-.04h.02ZM57.26,92.13c.16-.05.58-.08,1.12-.09-.29.27-.78.09-1.12.09ZM63.1,94.2c.83-.73,2.23-.23,3.52-.42-.12.28.28.16.49.18-.8.25-2.59.02-4,.23h0ZM62.4,95.32c.09-.33.42-.11.6,0-.02.22-.53.06-.6,0ZM62.51,94.95c-.1-.3.19-.29.23-.47.68.11.86.04,1.59.07-.51-.32.53-.34,1.2-.21-.02.04-.05.06-.07.11.2-.09.48-.03.57.09-1.15.41-2.72-.06-3.52.42h0ZM67.47,93.59c.61.39,1.44-.03,2.44.34-.89.24-2.94.11-2.44-.34ZM71.71,94.34c-.09.06-.17.12-.22.22-.05-.08-.15-.11-.27-.12.15-.03.31-.05.49-.1ZM73.88,92.12c0,.25-.27.45-.47.28-.05-.25.24-.24.47-.28ZM78.37,92.16c.02.42-.37-.04-.73.11.16-.23.42-.17.73-.11ZM106.04,96.38c.96.09,1.59.49.14.37,0-.17-.15-.19-.13-.37h-.01ZM117.57,98.29h-.25.25ZM126.46,96.05c-.01-.05,0-.1,0-.12.24.03.52.04.76.03-.15.12-.47-.09-.78.1h.02ZM131.09,95.19c.06,0,.13-.02.2-.02-.06.04-.14.06-.21.02h.01ZM133.48,94.94c.15-.02.42-.04.69-.05-.23.04-.45.08-.69.11v-.06ZM136.86,93.61c.51.25,1.22,0,1.67.2-.23.02-.54-.02-.58.12h.05c-.29.03-.58.06-.89.11,1.96.17-.8.8-.24-.45h0v.02ZM140.61,94.68c-.66-.23.08-.16.39-.09-.1.04-.22.09-.36.11,0,0,0,0,0-.02h-.05.01ZM143.86,94.43c.14-.09.35-.08.59-.06-.2.05-.4.09-.59.06ZM145.37,94.17c.25-.07.59.08.97-.04-.08.35-.62.16-.97.15.04-.03.08-.05.1-.1-.04,0-.08,0-.12-.02h.02ZM145.86,93.78c-.33.21-1.65.14-.72-.22.23.04.47.17.72.23h0ZM149.39,93.73c-.05-.24.55.03.6-.14h.31c-.24.18-.56.3-.91.14ZM152.69,94.03h-.21c.08-.03.15-.04.21,0ZM153.77,94.05c0-.09.05-.16.1-.21.22.09.12.3-.1.21ZM160.85,93.35v-.07s.09,0,.13-.02c-.05.06-.06.14-.15.08h.02,0ZM198.47,94.38h0,0ZM200.25,94.27c1.7.13,2.51-.3,4.07.16-1.48-.03-3.01.63-4.07-.17h0ZM207.92,94.91s.1-.04.17-.06c-.02,0-.06-.03-.08-.04.32.07.85.07,1.4.05-.46.2-.38.2-.28.45-.26-.02-.49-.03-.69-.05.06-.21-.41-.22-.53-.36h.01ZM211.47,95.14c-.25-.17.75-.32,0-.37.2-.12.76.15,1.1.34-.38.03-.71.06-1.09.03h0ZM218.17,95.47c-.3.08-.51.17-1.09.2.33-.14.71-.37,1.09-.2ZM219.78,93.6v.28c-1.25.09-1.7-.2,0-.28ZM226.63,93.58c.26-.21.65-.11.55.25-.16.02-.34.05-.53.11v-.35h-.02ZM227.52,93.5h.44c-.15.09-.3.07-.44,0ZM246.69,94.1h-.02.02ZM291.82,95.19c-.06.13-.03.21,0,.27h-.69c-.03-.19.06-.33.69-.27ZM312.31,95.23s.09.03.15.04h-.14s0-.03-.01-.04h0ZM320.05,94.7c.22.04.44.07.66.11-.34,0-.68.02-1.02.04.13-.04.24-.09.36-.14h0ZM325.59,93.92c-.36.04-.73.06-1.05-.09.39.02.76.04,1.05.09ZM326.81,93.61s0,.04.01.05c-.04,0-.06-.03-.09-.04.02,0,.07,0,.08-.02h0ZM330.37,83.68c.09.02.2.02.31-.02-.1.12-.21.27-.3.4v-.38s-.01,0-.01,0ZM331.83,69.37c.28-.55,1.19-.04,1.55.12-.44.41-.86-.27-1.55-.12ZM333.38,67.11c-.94.61-.86,1.08.38.75-.46.42-2.03.38-.78.88.58-.08-.18-.27,0-.5.15.09.53.19.58,0,.57.11-.12.41,0,.63-.28.07-.99-.14-.97.12-.78-.61-.34-.28-1.12-.37.21-.85-.5-1.51.93-1.38-1-.52-2.5-1.19,0-.75-.19.54.17.77.98.62ZM332.03,65.61c-.34,0-.59-.04-.81-.11.23-.24.45-.49.67-.76.14.24.25.51.14.87h0ZM338.19,45.37s.01-.06.02-.11l.53.14c-.1.09-.44,0-.56-.03h.01ZM338.29,25.89c.06-.31.12-.59.19-.85-.04.35-.1.62-.19.85ZM339.16,23.66c-.04.97-.16,1.56-.3,2.11-.01-.83-.46-.82-.18-1.36.15,1.4.3,0,.49-.76h-.01ZM340.23,17.85c.07.37-.34,1.8-.3.18.2.06.19-.67.3-.18ZM339.93,19.19c-.09.04-.18.08-.29.14.02-.48.05-.93.04-1.46.06.59.13,1.07.25,1.32ZM336.38,10.09c-.71.08-1.26.04-1.84,0v-.13c.88-.04,2.41.03,1.84.14h0ZM334.53,10.08c-.42,0-.86-.08,0-.13v.13ZM333.67,16.28c-.36-.04-.75-.07-1.18-.09-.01-.14-.04-.32-.05-.52.45.02.88.04,1.27.06-.01.19-.03.37-.06.55h.02ZM328.28,9.04h-1.42v-.17c.38.07.54.17,1.42.17ZM326.54,9.03h-.73v-.24c.32,0,.57,0,.74.03v.21h-.01,0ZM281.51,7.73h-.07.07ZM264.75,7.58h-1.02c.28-.02.62-.02,1.02,0ZM272.87,7.81c2.35.04,4.81.29,8.27.21-.12.11.59.1.34.23,4.43.02,7.82-.08,11.14.26,1.89-.24,3.32.08,5.27.14-6.09.07-8.2-.2-13.98.25-.02-.21,1.23-.11,1.36-.28-3.97.06-6.09.31-8.95-.15-2.66.83-7.69-.14-10.05.25.99.05,3.16-.04,3.52.22-.69.07-1.48-.07-2.16.08h.02s-.06,0-.07.03c1.4.06,1.99-.05,2.56.13-.96.2-3.14-.06-3.21-.19-.12.05-.93-.13-.94.02.2.02.31.04.39.08-.19-.11-.82.06-1.02.11l2.87.27-1.1-.22c1.29,0,2.13.07,2.4.23-.73.08-1.42.11-2.08.11l.03-.03c-3.46.09-7.21.19-10.74.11l.81-.12c-1.87-.53-4.41.1-6.46-.33,1.05-.1,1.93-.19,1.88-.33,1.27-.03,2.21-.12,3.36-.13-.09.04-.18.11-.25.2.39.14.88.48.51-.2.36,0,.73,0,1.15.04-.7-.2-2.16-.09-3.18-.04,0-.04-.27-.05-.32-.09.69-.08.71-.26,1.11-.24-.08-.03-.15-.04-.22-.06.04-.14-.33-.31-.67-.53,6.52-.26,11.93.29,18.43,0v-.04h-.02ZM244.86,6.49c-.47,1-1.95.81-2.9.75,1.43-.54.21.14,0-.68,1.16-.1,2.41-.33,3.62-.13-.1.33-.47.12-.72.06ZM258.65,5.09c0-.07.59,0,.61-.02-.2,0-.41.01-.61.02ZM261.2,5.16c-.22-.04-.55.11-.7-.03l.71.03h-.01,0ZM265.72,6.24c.02-.11,1.34-.03,1.9-.05,0,.12-1.48.11-1.9.05ZM266.89,5.36c.13-.11,1.56-.03,2.22-.05-.1.27-1.01.02-2.22.05ZM271.97,5.3v-.13c2.53-.17,6.3-.07,8.74.02-2.35-.07-5.39.11-8.09.2,1.99.02,1.07-.09,2.52-.14-1.4-.06-2.19-.11-3.17.05h0ZM280.91,5.75c.62-.14.66.05,1.34.05-.49.1-1.14-.05-1.34-.04h0ZM278.59,5.44c.47,0,.9.04,1.21.08-.35-.03-.8-.06-1.21-.08ZM280.59,5.75c.34.23-1.55.07-1.57.14-.94-.08.69-.17,1.57-.14ZM281.86,5.12c.09,0,.23-.03.41-.03-.14,0-.28.02-.41.03ZM277.71,5.56c-.38-.05-.81-.09-1.26-.11.35.07,1.12-.19,1.26.11ZM278.99,6.14h.72c-.18.04-.54.03-.72,0h0ZM283.01,5.87c.77-.04,1.57-.06,2.41-.07-.5.09-1.47.1-2.41.07ZM311.03,5.55c.28.03.5.07.62.17h-.24c-.82,0-1.29.02-2.1-.11.57-.06,1.19-.04,1.71-.06h.01ZM297.27,5.41c-1.03-.4,1.24-.4,2-.37.41.39-2.41,0-1.99.38h-.01ZM295.14,4.68c-.3,0-.47-.04-.59-.08.23.02.47-.07.66.08h-.07ZM312.54,5.88c-.07,0-.13,0-.2-.02.34,0,.64.03.93.05-.22,0-.6,0-.73-.04h0ZM312.27,5.7c-.2.02-.39.02-.59.03-.01-.09-.02-.13-.02-.17.5,0,.78.04.61.15h0ZM311.84,4.62c-.37.42-1.22.06-1.8.15.62-.04,1.21-.1,1.8-.14h0ZM307.24,4.36c.53.11,1.01.21,1.42.34-.53-.06-1.08,0-1.62,0,.51-.19-.89-.31.21-.34h-.01ZM306.83,4.7c-.42,0-.83.02-1.27.02.39-.11.85-.17,1.27-.02ZM295.8,4.32c-.11.1-.11.27-.39.32.04-.11-.51-.14-.66-.23.24-.04.67-.06,1.05-.09h0ZM278.55,3.8c.3.13-.44.22-.69.27-.31-.16.29-.21.69-.27ZM252.5,4.46c.05.09,1.05.03.96.13,3.93-.14,8.22.33,11.43-.03-.9,0-2.18.04-2.23-.09.99,0,5.44-.16,4.47.18,2.42-.35,17.25.13,24.05-.04-1.41.61-3.2.69-5.23.66.13.03.26.05.37.09-.65,0-1.35.03-1.94-.19.6.03,1.16.05,1.57.1-1.16-.18-4.01-.89-4.86-.56.28,0,.45.04.58.07-.36-.04-4.18.02-3.82.04-1.35,0-2.89-.01-4.21-.07.07,0,.13,0,.17-.02-.3.03-.64,0-.91-.03-.19.27-2.7.14-3.84.08,0,.06.16.1.34.14-.54,0-.81.04-.94.1,1.01-.04,1.75-.04,2.5-.05-.45.06-.44.13.93.19-2.44.12-5.98-.04-9.26-.03.2-.09.8-.15,1.42-.12-3.84-.33-9.77.21-13.34.07.36-.32,1.38-.11,1.87-.11-1.15-.29-1.91-.15-3.93-.34.78.03.53.12.81.21-1.52,0-2.29-.03-1.56-.18-1.61-.21-4.67.79-6.19-.07v.27c-.07,0-.14.03-.12.12-.4-.12-.52-.07-.76.05h.12c0,.08-.11.03-.16.04.28-.29.13-.57-.25-.61,3.83.05,8.03.19,12.02-.03h-.04l-.02.03ZM221.3,4.5c.14.37-.62-.13-.78.33,0-.15-.03-.26-.09-.34h.87ZM192.27,3.41c.13-.18.16-.11.17,0h-.17ZM192.07,2.49c-.4.05-.8.25-1.21.77-.04-.27.13-.31.12-.56-.38,0-.34.44-.85.29.02-.2-.07-.27-.12-.42.08,0,.17.02.24.02l-.14-.04c.37.03.66.04.89,0-.29-.03-.73-.04-1.02-.07v-.04c-.09.02-.19.03-.27-.03.6.04,1.6-.06,2.06.11.03,0,.26-.05.29-.04h.01ZM191.48,2.4c-.09,0-.17-.02-.27-.03.09,0,.18.02.27.03ZM190.36,2.33c-.23,0-.63.12-.91,0h.91ZM188.12,2.11s.38.17.28.36c-.2.02-.19-.27-.46-.34l.18-.03h0ZM184.77,1.84c-.04.19-.3.12-.49.15.61.18.1.44.37.69-.11.22-.5-.44-.61-.69.43-.05.29-.39.73-.15h0ZM180.76,2.19c-.25.31.03.3.37.27-.14.57-.74-.07-1.1-.11,0-.32.54-.05.73-.16h0ZM168.39,2.98c-.23-.03-1.3,1.26-1.96.29.94.49,1.54-1.12,2.11-.29h-.15ZM167.74,1.58c.16.19.53.13.86.12.17.5.41.76-.36.71.21-.29-.09-.27.12-.56-.24-.05-.73.2-.61-.27h0ZM166.29,1.89c.32-.42.47-.13.85-.02-.19.21-.6.1-.86.02h0ZM160.81,2.17c1.04.05,1.57.11,1.88.17-.48.24-1.41-.21-1.19.55h-.51c0-.14.03-.31.08-.49-.85.43-1.47.06-2.25-.07,1.19-.03,2.34-.04,1.98-.17h0ZM157.47,2.85c-.12.04-.27.06-.4.06.09-.02.23-.05.4-.06ZM144.4,3.22c-1.36-.09-2.25.14-3.25-.04.17-.03.17-.2.37-.14-.05-.02-.08-.04-.1-.05.75,0,2.73-.04,2.99.24h0ZM146.42,2.41s.1-.04.16-.06c.05.03-.04.04-.16.06ZM147.2,2.37c-.22,0-.43-.02-.59-.04.16-.07.32-.15.49-.25-.09.15-.02.24.1.28h0ZM143.2,2.58c.58.29-.16.39-.42.35.15-.07.3-.19.42-.35ZM133.01,2.07c-.15.1-.29.23-.38.42-.67-.29-.9-.41-1.58-.11.06-.18.06-.27,0-.34.8.04,1.42.02,1.97.04h0ZM116.27,2.87c-.68-.05-.77.31-1.88.2.29-.13,1.41-.27,1.88-.19h0ZM110.28.98c.13,0,.35-.03.4.13-.08-.03-.22-.07-.4-.13ZM110.24.66c.12.11.22.21.32.33-.22.08-.63-.27-.32-.34h0ZM106.68.75l.41.04v.17c-.22.04-.35,0-.41-.21ZM105.69,1.56c.11.34-.81.03-.92.07.39-.03.68-.05.92-.07ZM103.38,1.59s.05.11.07.16c-.14.1-.27-.07-.07-.16ZM104.43,2.29c-.22-.2-.4-.42-.56-.71.44.06.89.12,1.4.16-.2-.03-.38.37-.64.41h.07c-.09.09-.18.14-.28.14h0ZM106.86,3.01c.08-.04-.06-.07-.17-.11.82.11,1.62,0,2.4,0-.14,0-.24,0-.29.02.46.03.79.07.97.14-.63.03-1.32.03-1.91,0v-.08c-.32.03-.68.07-1,.04h0ZM43.37,4.56c.46,0,.86,0,1.3.05-.24.1-2.63-.01-1.3-.05ZM16.34,4.51c.14.07.12.16,1.18.14,2.56-.63,5.17.45,7.49-.15-.91,0-2.42.13-3.06,0,2.6-.25,3.31.14,6.69.08-.88,0-1.28.04-1.46.1,2.22-.15,5.93.1,8.08-.06-2.69-.07-3.48-.03-5.67-.13,5.62-.14,7.99.17,14.3.23l-2.74.27c.22,0,5.24-.12,5.3-.09v.13c-2.27.09-5.96-.03-8.39-.16.62.07,1.26.14,1.92.21-2.16-.07,1.07.2-1.44.19-6.14-.26-13.92-.16-19.96-.11,3.75.15-7.32-.06-9.69-.03,0,3.7.02,7.55-.05,10.87,0-.42.07-.57.12-.72v1.52c-.08,0-.14-.22-.19-.44.15,1.37-.22,3.23-.12,4.17.05-.72.05.83.24,1.96,0-.57-.02-1.41.06-1.51.21,4.54-.07,10.22.27,13.36-.65-3.4.13.21-.06,1.94.54.65,1.42,6.08-.71,6.62.04-12.28-.19-25.57-.24-38.25,2.89-.02,5.62-.04,8.11-.15h.02ZM9.26,11.63c-.08-.8-.37-4.23-.01-4.9-.15,1.23,0,3.35.01,4.9ZM9.15,11.95c.24.97.03,2.17.13,3.83-.3-.47,0-3.04-.13-3.83ZM8.52,46.02c-.39,1.05-.35-1.46,0-.25v-.87c1.09.06.41,2.1.8,2.77-.01-.91-.02-1.83.08-2.3.07.12.15.26.23.43-.01-.17.03-.27.1-.34.19,1.03-.07,1.33-.05,2.42-.08.02-.14-.11-.19-.23-.02.34-.12.88-.15,1.34-1.02-.86-.78-1.95-.83-2.99h0v.02ZM7.64,54.8c.05.12.1.25.19.23-.08.93.24,1.28.02,1.78-.1-.4-.12-1.31-.2-2.02h-.01ZM8.92,58.88c1.09-1.13-.21-1.5-.3-2.43-.11.8-.28-2.04-.12-2.66-.01.56.02.91.13.96.15-.76-.46-2.62,0-1.21-.05-1.1-.03-2.65-.03-4.14.25.07.17.62.32.73,0-.23,0-.42-.01-.6.15.08.3.18.45.31.02-.03.03-.05.06-.07.01.04.03.07.05.09.05-.51.47-.42.56.15.09-.16-.14-.4.05-.53v.1c.39,0-.24,2.45.01,3.15.03-.95.19-1.86.28-2.69.03.05.07.11.13.13.05-.26.1-.4.2-.54.08.05.03.48-.07.38.44.85-.2,2.93.01,3.39.3.17-.32,4.17.17,6.57-.63-.23-.39-1.55-.29-1.71,0,.28,0,.69.06.72.04-.6.01-.61-.3-1.19.05.63.06,1.1.06,1.61-.57-.1-1.17-.17-1.41-.53v.02h-.01ZM10.6,69.63h.03c0,.05.01.11.02.18-.04-.05-.06-.1-.06-.18h.01ZM19.5,82.51c.14.04.28.07.41.09-.07.29-.15.42-.2.32.06.16-.11.26-.09.45.34-.2.37.98.46,1.09-.24.04-.43.14-.43.41.43-.08.69-.27,1.09-.38-.2-.03-.43-.04-.62-.03l-.05-.79c1.73-.02,1.01,1.56.72,2.58h.39v.3c-.47-.03-.93.06,0,.11v.56h-1.63c-.02-1.58,0-3.17-.05-4.72h0ZM22.65,93.7c0-.23,0-.46.01-.68,2.44.03,5.35.04,8.3.04.74-.02,1.08.69,1.62.38,0,.06.06.11.1.17-.59,0-1.24.02-2.03,0-2.13.43-4.95-.04-8.01.08h.01ZM31.57,93.82c-.37,0-.78-.02-1.2-.03.83.04,1.9-.33,2.73.05.14.11.87.17,1.16.24-2.89.14-2-.15-2.7-.27h.01ZM35.54,94.15s-.08.03-.15,0h.15ZM36.21,94.19c1.53-.14,3.24,0,4.56.03v.04c-.33-.03-.68.03-1-.06v.04c-1.17-.03-2.46-.05-3.56-.04h0ZM41.15,94.27c.41-.02.89.01,1.26.04-.42-.01-.84-.03-1.26-.05h0ZM48.28,94.38c.09-.32.59-.05.86-.11-.05.21-.61.04-.86.11ZM57.76,94.45c.1-.07.28-.11.49-.1,0,.13,0,.27.13.28-.1.21-.76.1-.61-.19h-.01ZM59.57,93.87c1.08.26,1.49-.58,2.3-.03-.17.22-.29.14-.6.1,2.29,1.52-.65.51-1.71-.06h0ZM61.92,95.62c-.17-.12-.47-.14-.62-.28.41-.18.58.11.88.23-.13.02-.22.04-.27.05,0,0,0,0,0,0ZM62.24,95.56s.1-.05.16-.15c0,.04,0,.09,0,.12-.07,0-.14,0-.17.03ZM70.82,96.04c-.03-.11-.07-.21-.14-.29.16-.02.31-.04.46-.06-1.14.3-9.37.43-7.04-.11v-.05c.07,0,.13,0,.17-.02-.05,0-.1-.02-.17-.02,0-.1-.02-.18-.13-.19,1.25-.07,3.6-.26,5.39-.44h-.41c.31-.13,1.29.59,1.2.19l.17.03c-.09-.07.95-.44.57.15.76-.18,2.22-.34.84-.38,1.24-.72,1.35.24,1.72.63-.53.33-1.93-.29-2.19.12.93.21,2.56-.13,3.04.42-1.21.39-2.25-.02-3.52.02h.04ZM76.25,95.16c-.32-.77.3-.12.73-.19-.12.16-.51.11-.73.19ZM79.64,94.65c-.38-.06-.76-.1-1.13-.11.03-.04.07-.06.1-.09-.03.03-.85-.07-.8.06-.79-.03-1.57-.03-2.42-.08,1,.21,0,.63-.24.1-.34.19-.36.27-.23.65-.98-.62-.36-1.03.98-.95,2.44.32,2.99-.13.01,0h.07c-.64-.28-.75-.2-.01-.46.16.03.1.23.13.37,1.27-.06,2.1-.43,3.33.08-1.3.15,3.31.14.15,0-.35-.68,2.4.37,1-.41.57.14,1.01.05,1.46-.11.05.21-.01.35-.12.47.32.03.39-.13.36-.38.61-.11.75.16.98.36-.37.42-1.3.34-2.15.32v-.02c.3-.19-1.22.02-1.48.21v-.04.03ZM91.59,96.55c-.02.32-.67.18-.96.29.15-.42.58-.11.96-.29ZM93.82,98.48c-.42.43-.1-.25-.49-.18.1-.12.33,0,.47-.03,0,.11.01.19.13.2-.02.11-.13.05-.13,0h.02ZM98.81,99.17c-.08-.36-.1-.38.1-.65.19.19.39.64-.1.65ZM99.54,99.06c-.14-.04-.31-.16-.13-.19-.08-.1-.28-.1-.24-.27.1.05.22.11.24,0,.13.02.09.19.24.19-.07.08-.13.15-.12.28h.01ZM101.25,99.6c.03-.12.3-.08.49-.1-.57-.11-.13-.25-.37-.46.12-.15.5.29.61.46-.42.03-.32.27-.73.1ZM105.25,99.37c.26-.2-.03-.2-.37-.18.14-.38.74.04,1.1.08-.01.2-.52.04-.73.11h0ZM107.03,98.3c.19-.01.28.06.74.04-.03.02-.05.03-.05.04-.24.02-.49,0-.69-.07h0ZM118.26,99.77c-.16-.12-.53-.09-.86-.08,0-.16-.09-.24-.24-.27.01-.2.3-.2.6-.19-.21.19.09.18-.12.37.23.04.73-.13.61.18h.01ZM118.88,99.57c.32-.27.47-.09.85,0-.32.27-.47.09-.85,0ZM119.21,98.09c-.09-.28.21-.27.12-.56.19.17.83-.03.74.36.16-.34.79-.03,1.22-.02-.82-.05-1.46.34-2.07.21h-.01ZM121.03,97.79c-.21-.15-.1-.55.36-.47-.36.56.54-.05.61.46-.5-.07-.42,0-.97,0h0ZM123.08,97.29c.1-.14.3-.2.6-.19.04.27-.43.34-.6.19ZM124.64,96.26c.3-.18.46,0,.97-.11,0,.28-.79.23-.97.11ZM125.05,98.39c.44.07.58-.22.85,0,.15.4-.98.41-.85,0ZM126.13,98.28c.25.27.78.33.87.73-.47-.1-.95-.2-.87-.73ZM128.53,96.39c-.28.04-.14-.27-.37-.27.21.41-.72.5-1.32.57-.07-.86.36-.31.84-.66-.29-.16.2-.19.22-.34h-.06c.09-.07.19-.14.19-.21.25.05.25.14.13.27.89-.23,2.01,0,2.92-.22,0,.11-.21.21,0,.27-.21-.37.66,0,.27-.39.06,0,.13,0,.18-.02-.04-.04-.08-.06-.14-.09.12-.12.39-.21.52-.26-.28.58.48-.14.71.04-.12,0-.22.02-.35.03.09.13.12.19.13.24-.05.01-.09.02-.13-.03,0,.03,0,.04.02.05-.45.11-.88.31-1.11.57h.06c-.85.24-1.62.16-.53-.13-1.21.08-1.62.4-2.18.58v-.02.02ZM132.05,96.07c-.15-.06-.22-.12-.27-.19.1-.04.21-.07.29-.11.57.04,1.08.14,1.8.02-.47.45-1.31-.04-1.83.28h.01ZM136.61,95.85c.21,0,.41.02.59.02-.18,0-.35.02-.52.03,0-.02-.03-.03-.07-.04h0ZM136.54,96.16h.17c-.05.02-.1.04-.16.05,0-.02,0-.03,0-.04h0ZM137.55,96.04s.06,0,.09-.02c-.45-.05.12-.15.25-.02-.13.03-.26.01-.35.04h.01ZM152.45,95.65c-.21-.13-.44-.04-.62-.03v-.24c-.07.02-.12.04-.17.05.19-.19.99-.06.8.21h-.01ZM153.02,95.39c.07-.07-.43-.29-.6-.12-3.42.26-7.95.23-11.38.72,0-.41-1.17.44-1.6-.44-.12.19-.3.33-.47.47.22.03.6-.27.73,0-.68.5-.74-.28-1.59-.17.72-.24,1.39-.65,2.14-.47-.09.04-.17.09-.2.18.43.04.62-.09.72-.29-.07.02-.15.04-.23.04-.26,0-1.54,0-2.04.06h.58c-.81.4-2.05-.19-3.07.49.17,0,.34.02.5.03-.23.12-.53.06-.76-.03.09-.36-1.18-.31-1.52-.16.16-.07.55.06.43.14h.02c-.37.1-.63-.15-.88-.32.12-.04.21-.07.25-.12-.26-.02-.56.05-.76-.09.02.02.08.02.2.02v-.07c.27.07,2.39.34,1.18-.38.41-.02.68-.04,1.01-.04-.16.08-.29.19-.36.37.46-.05,1.65-.7,1.94-.3,2.64-.1,5.69.13,8.61-.15-.89.25-2.26.37-2.68.82.82-.17,2.87-.02,4.25-.25-.05-.12-.07-.26-.09-.38.24.1.47.19.62.11-.35-.11.2-.11.24,0,.08-.26.02-.21.36-.38-.18-.02-.45.04-.49-.09.93-.58,3.09.4,3.7-.12h.21c.02.5,1.24-.27,1.77-.24-.16.16-.13.27.24.34.02-.32.65-.25,1.16-.25,0-.02,0-.03-.02-.04,3.67.41,2.04.61-.17.35.42.1,1.34.21,2.1.3-.95.88-2.62.28-4.05.44v.02ZM158.64,95.3c-.14.3.39.07.25.37-.45.02-.85.04-.37-.37-.51,0-1.01,0-1.52.02.05-.48,1.16-.2,1.42-.44.6.11,2.81.1.96.27.34-.02.66-.04.99-.06.76.11,1.46-.14,2.3-.04-.11.38-1.07.57-.28.11-1.02.12-2.87-.03-3.77.13h.02ZM163.99,95.32c-.23-.18-1.03.35-1.46.02.61-.09.71-.14,1.45-.07,0,.02,0,.04,0,.06h.01ZM163.05,96.64c.07-.08.13-.15.12-.28.57.09.64-.33.97,0-.16.04-.68.18-1.09.29h0ZM165.37,96.39c.27-.12.53-.25.83-.35-.1.42-.59.33-.83.35ZM183.2,95.56c-.09.33-.43.11-.61,0,.02-.22.53-.06.61,0ZM182.7,95.1c.26-.09.44-.02.59.06-.19-.03-.45.09-.59-.06ZM193.97,96.23l-.65-.08.46-.03s-.02.02-.04.04c.14.03.21.05.22.07h0ZM195.11,95.04c-1.24-.12-2.75-.06-3.31.06.22,0,.47.03.79.07-3.49.86-8.55-.54-12.21.06,0-.12.06-.2.11-.28-3.79.2-7.48,0-11.31.48l.67-.14-1.21.12c.36-.25,1.2-.33,1.69-.31-.1-.03-.21-.04-.32-.05.07-.04.12-.09.15-.15-.25,0-.86.06-1.42.07.34-.11-.59-.05-1.25-.2v.04c-1.43-.04-3.32-.07-1.85-.27-2.13-.14-2.84,0-4.21-.11.07-.09.18-.15.48-.1.04-.26-.29-.24-.27-.45.34.11.86.08,1.1.27.07-.37-1.2-.41-1.2-.19-.32-.06-.55-.31-.17-.46h-.07s0-.02.02-.03c-.15,0-.27-.02-.37-.05.34-.06,1.57-.09,1.05-.19.91-.02,4.28.31,5.06.17.49.09,1.27.34,1.49-.05-.71.13-1.17-.09-1.88-.07.88-.04,2.43-.11,2.93.22-.57-.14-1.18-.11-1.72.22.78.08,1.78.32,2.51.12-.12-.07-.23-.13-.36-.19.79-.1,1.7-.19,2.49-.19,3.12.06,5.67-.21,8.88,0,.88-.4.07,2.05,1.55,1-.29-.15-.79-.16-.96-.38.6-.03.79-.33,1.16-.5-.2.38.43.22.78.25.1-.58-1.07-.34-1.81-.36.52.01,1.01-.07,2.16-.06-.05.15.12.29,1.37.36-2.34.24.35,0,1.1.14.02-.26.71-.03,1.03-.1-.65.08-1.3.15-1.53.37,1.06.06,3.73-.84,4.33.26,0-.1.44-.11.51,0-3.1.57-4.34.18-.73.29-.16.12-.24.24-.75.37,1.75-.36,4.63-.48,5.49-.04l.04-.02h-.03ZM201.12,95.16c-.66.1-1.83-.05-3.23-.29h2.05l-.27-.04c.14,0,.59-.19.6.09.66-.04,1.39-.05,1.77-.19h-.76c1.15-.2,1.08.12,2.14.47-.08.06-.03.07.06.1-.73.1-1.3.2-1.09.36-.93-.12-1.45-.37-1.27-.49h0ZM209.72,95.34c.09-.09.09-.21.47-.2,0,.04,0,.06.04.09h-.25c.25-.02.35.1.65.14-.31,0-.61-.02-.9-.03h0ZM215.57,95.63c.38-.03.54,0,.83.05-.23-.01-.54.01-.83-.05ZM218.17,95.47c.25.04.42.03.15.11-.18-.04-.25-.08-.15-.11ZM219.58,95.09c.54-.2-.07-.2-.76-.19.29-.38,1.56.04,2.29.08-.02.2-1.09.04-1.53.11ZM224.88,94.09s.03-.02.06-.03c-2.54-.44-3.14.65-6.16.19,2.15-.41,5.19-.81,6.99-.57-.06.09,0,.17.05.27-.28.07-.6.11-.95.14h0ZM227.83,93.8c.05-.05.1-.1.2-.11,0,.07.05.11.1.13-.1,0-.21-.02-.3-.02h0ZM230.82,93.68c-.07-.07-.15-.14-.22-.2.29,0,.57.03.85.06-.17.1-.39.13-.62.14h-.01ZM238.5,94.3s-.1-.04-.17-.05h.2s0,.03-.02.04h0ZM244.21,95.32c-.78.02.08-.46,0,0h0ZM246.77,95.49c-.34-.12-1.11-.09-1.78-.08,0-.16-.2-.24-.52-.27.02-.2.62-.2,1.26-.19-.43.19.2.18-.24.37.36-.02.9.09,1.31.08,0,0,0,.06-.04.1h.01ZM285.78,95.54c-.52-.75.78.02-.01,0h.01ZM286.6,95.45h.77s-.04.09-.04.12c-.32,0-.62-.02-.91-.02.02-.05.07-.1.17-.11h.01ZM289.47,95.71c-.09,0-.17-.02-.26-.03.11-.08.52-.11.24.02h.02ZM306.99,95.72h.08-.08ZM308.16,95.8c-.08,0-.16,0-.24-.02.18-.13.59-.08.81-.02l-.57.04h0ZM328.8,94.83c-.96-.05-1.1-.14-.8-.27-1.92.13-3.73.17-5.47.2,1.54-.71,3.97-.44,5.96-.72,0-.05-.01-.13-.02-.21.5,0,.52-.36.48-.76h.21c.04.55.09,1.1.18,1.62-.21.04-.38.1-.53.15h-.01ZM331.83,86.92c-.48-.57-.74-.04-1.46,0v-.27c1.01-.11,1.73-1.1,1.46.27ZM335.31,74.76c-.37-.05-.15-.49-.78-.38-.58-.15,1.37-.13.2-.38.31-.35.72.27,1.16.25-.09.24-.75.1-.58.51h0ZM336.47,80.65c1.15.64-.41.02-.59.64-.6-.24.46-.45.59-.64ZM335.31,73.88c.14-.38-.2-.46-.2-.75.42.27,1.01.43,1.74.5-.22.57-1.07-.32-1.55.25h.01ZM336.86,75.26c.31-.21.98-.37,1.55-.25-.31.21-1.13.48-1.55.25Z"/></g></g></svg>